<?xml version="1.0" encoding="UTF-8"?><svg id="Calque_1" xmlns="http://www.w3.org/2000/svg" xmlns:xlink="http://www.w3.org/1999/xlink" viewBox="0 0 112 112"><defs><style>.cls-1{fill:url(#Dégradé_sans_nom_401);filter:url(#drop-shadow-1);}.cls-2{fill:#00b0a3;}.cls-3{fill:#fff;}.cls-4{fill:#2e6575;}</style><linearGradient id="Dégradé_sans_nom_401" x1="56" y1="5.46" x2="56" y2="67.98" gradientUnits="userSpaceOnUse"><stop offset="0" stop-color="#2e6575"/><stop offset=".28" stop-color="#296070"/><stop offset=".6" stop-color="#1b5165"/><stop offset=".94" stop-color="#043a51"/><stop offset="1" stop-color="#00364e"/></linearGradient><filter id="drop-shadow-1" filterUnits="userSpaceOnUse"><feOffset dx="0" dy="2.92"/><feGaussianBlur result="blur" stdDeviation="1.75"/><feFlood flood-color="#4f8a9e" flood-opacity=".3"/><feComposite in2="blur" operator="in"/><feComposite in="SourceGraphic"/></filter></defs><g><path class="cls-4" d="M31.89,85.24c1.06,0,1.99,.11,2.83,.74,.93,.7,1.46,1.81,1.46,3.07s-.53,2.37-1.53,3.07c-.89,.63-1.73,.73-2.79,.73h-1.58v-7.62h1.6Zm-.43,6.53h.5c.57,0,1.36-.04,2.02-.54,.53-.4,1.04-1.13,1.04-2.17s-.48-1.79-1.03-2.19c-.66-.48-1.47-.53-2.03-.53h-.5v5.43Z"/><path class="cls-4" d="M40.96,88.05h1.12v4.81h-1.12v-.5c-.49,.57-1.1,.65-1.44,.65-1.49,0-2.33-1.23-2.33-2.56,0-1.57,1.07-2.53,2.34-2.53,.35,0,.97,.09,1.43,.69v-.56Zm-2.63,2.42c0,.83,.53,1.53,1.34,1.53,.71,0,1.36-.51,1.36-1.52s-.65-1.55-1.36-1.55c-.81,0-1.34,.69-1.34,1.54Z"/><path class="cls-4" d="M44.65,89.08v3.78h-1.12v-3.78h-.47v-1.03h.47v-1.76h1.12v1.76h.86v1.03h-.86Z"/><path class="cls-4" d="M49.78,88.05h1.12v4.81h-1.12v-.5c-.49,.57-1.1,.65-1.44,.65-1.49,0-2.33-1.23-2.33-2.56,0-1.57,1.07-2.53,2.34-2.53,.35,0,.97,.09,1.43,.69v-.56Zm-2.63,2.42c0,.83,.53,1.53,1.34,1.53,.71,0,1.36-.51,1.36-1.52s-.65-1.55-1.36-1.55c-.81,0-1.34,.69-1.34,1.54Z"/><path class="cls-4" d="M59.01,86.34h-2.65v1.93h2.56v1.1h-2.56v3.5h-1.17v-7.62h3.82v1.1Z"/><path class="cls-4" d="M63.36,88.05h1.12v4.81h-1.12v-.5c-.49,.57-1.1,.65-1.44,.65-1.49,0-2.33-1.23-2.33-2.56,0-1.57,1.07-2.53,2.34-2.53,.35,0,.97,.09,1.43,.69v-.56Zm-2.63,2.42c0,.83,.53,1.53,1.34,1.53,.71,0,1.36-.51,1.36-1.52s-.65-1.55-1.36-1.55c-.81,0-1.34,.69-1.34,1.54Z"/><path class="cls-4" d="M67.02,88.61c.46-.59,1.07-.69,1.43-.69,1.27,0,2.34,.96,2.34,2.53,0,1.33-.85,2.56-2.33,2.56-.34,0-.95-.08-1.44-.65v.5h-1.12v-8.33h1.12v4.08Zm-.07,1.88c0,1.01,.65,1.52,1.36,1.52,.81,0,1.34-.7,1.34-1.53s-.53-1.54-1.34-1.54c-.71,0-1.36,.5-1.36,1.55Z"/><path class="cls-4" d="M71.95,88.05h1.12v.43c.13-.15,.31-.31,.47-.4,.22-.13,.43-.16,.69-.16,.27,0,.57,.05,.88,.23l-.46,1.02c-.25-.16-.46-.17-.57-.17-.24,0-.48,.03-.7,.26-.31,.33-.31,.79-.31,1.11v2.49h-1.12v-4.81Z"/><path class="cls-4" d="M76.31,85.34c.41,0,.72,.31,.72,.72s-.31,.72-.72,.72-.72-.31-.72-.72,.31-.72,.72-.72Zm.56,2.71v4.81h-1.12v-4.81h1.12Z"/><path class="cls-4" d="M79.41,84.53v5.13l1.57-1.61h1.49l-2.07,2,2.22,2.81h-1.42l-1.58-2.06-.21,.21v1.85h-1.12v-8.33h1.12Z"/></g><g><rect class="cls-1" x="24.74" y="5.46" width="62.51" height="62.51" rx="17.79" ry="17.79"/><g><path class="cls-3" d="M61.65,51.3c-8.04,0-14.59-6.54-14.59-14.59,0-1.81,1.47-3.28,3.28-3.28s3.28,1.47,3.28,3.28c0,4.42,3.6,8.02,8.02,8.02s8.02-3.6,8.02-8.02c0-1.81,1.47-3.28,3.28-3.28s3.28,1.47,3.28,3.28c0,8.04-6.54,14.59-14.59,14.59Z"/><path class="cls-2" d="M61.65,40c-1.81,0-3.28-1.47-3.28-3.28,0-4.42-3.6-8.02-8.02-8.02s-8.02,3.6-8.02,8.02c0,1.81-1.47,3.28-3.28,3.28s-3.28-1.47-3.28-3.28c0-8.04,6.54-14.59,14.59-14.59s14.59,6.54,14.59,14.59c0,1.81-1.47,3.28-3.28,3.28Z"/></g></g></svg>