<?xml version="1.0" encoding="UTF-8"?><svg id="Calque_1" xmlns="http://www.w3.org/2000/svg" xmlns:xlink="http://www.w3.org/1999/xlink" viewBox="0 0 112 112"><defs><style>.cls-1{fill:url(#Dégradé_sans_nom_401);filter:url(#drop-shadow-1);}.cls-2{fill:#00b0a3;}.cls-3{fill:#fff;}.cls-4{fill:#2e6575;}</style><linearGradient id="Dégradé_sans_nom_401" x1="56" y1="5.46" x2="56" y2="67.98" gradientUnits="userSpaceOnUse"><stop offset="0" stop-color="#2e6575"/><stop offset=".28" stop-color="#296070"/><stop offset=".6" stop-color="#1b5165"/><stop offset=".94" stop-color="#043a51"/><stop offset="1" stop-color="#00364e"/></linearGradient><filter id="drop-shadow-1" filterUnits="userSpaceOnUse"><feOffset dx="0" dy="2.92"/><feGaussianBlur result="blur" stdDeviation=".88"/><feFlood flood-color="#4f8a9e" flood-opacity=".3"/><feComposite in2="blur" operator="in"/><feComposite in="SourceGraphic"/></filter></defs><g><path class="cls-4" d="M34.34,85.24c1.06,0,1.99,.11,2.83,.74,.93,.7,1.46,1.81,1.46,3.07s-.53,2.37-1.53,3.07c-.89,.63-1.73,.73-2.79,.73h-1.58v-7.62h1.6Zm-.43,6.53h.5c.57,0,1.36-.05,2.02-.54,.53-.4,1.04-1.13,1.04-2.17s-.48-1.79-1.03-2.19c-.66-.48-1.47-.53-2.03-.53h-.5v5.43Z"/><path class="cls-4" d="M43.42,88.05h1.12v4.81h-1.12v-.5c-.49,.57-1.1,.65-1.44,.65-1.49,0-2.33-1.23-2.33-2.56,0-1.57,1.07-2.53,2.34-2.53,.35,0,.97,.09,1.43,.69v-.56Zm-2.63,2.42c0,.83,.53,1.53,1.34,1.53,.71,0,1.36-.51,1.36-1.52s-.65-1.55-1.36-1.55c-.81,0-1.34,.69-1.34,1.54Z"/><path class="cls-4" d="M47.11,89.08v3.78h-1.12v-3.78h-.47v-1.03h.47v-1.76h1.12v1.76h.86v1.03h-.86Z"/><path class="cls-4" d="M52.24,88.05h1.12v4.81h-1.12v-.5c-.49,.57-1.1,.65-1.44,.65-1.49,0-2.33-1.23-2.33-2.56,0-1.57,1.07-2.53,2.34-2.53,.35,0,.97,.09,1.43,.69v-.56Zm-2.63,2.42c0,.83,.53,1.53,1.34,1.53,.71,0,1.36-.51,1.36-1.52s-.65-1.55-1.36-1.55c-.81,0-1.34,.69-1.34,1.54Z"/><path class="cls-4" d="M60.94,86.93c-.07-.17-.17-.33-.34-.48-.24-.19-.49-.27-.82-.27-.71,0-1.07,.42-1.07,.91,0,.23,.08,.63,.82,.93l.77,.31c1.41,.57,1.79,1.37,1.79,2.24,0,1.45-1.03,2.45-2.46,2.45-.88,0-1.41-.33-1.79-.77-.41-.46-.59-.96-.64-1.49l1.15-.25c0,.38,.14,.73,.32,.97,.22,.27,.54,.46,.99,.46,.71,0,1.26-.51,1.26-1.28s-.59-1.1-1.1-1.3l-.73-.31c-.63-.26-1.55-.79-1.55-1.93,0-1.03,.8-2.01,2.23-2.01,.82,0,1.29,.31,1.53,.51,.21,.18,.42,.45,.58,.77l-.94,.55Z"/><path class="cls-4" d="M63.34,84.53h1.12v3.93c.48-.49,1.01-.54,1.29-.54,.88,0,1.28,.46,1.42,.65,.3,.43,.31,.99,.31,1.34v2.95h-1.12v-2.85c0-.29,0-.59-.22-.83-.13-.14-.34-.25-.63-.25-.38,0-.67,.18-.82,.4-.16,.23-.23,.59-.23,1.21v2.32h-1.12v-8.33Z"/><path class="cls-4" d="M73.66,90.46c0,1.47-1.12,2.55-2.57,2.55s-2.57-1.07-2.57-2.55,1.12-2.54,2.57-2.54,2.57,1.05,2.57,2.54Zm-1.14,.01c0-1.1-.72-1.54-1.43-1.54s-1.43,.45-1.43,1.54c0,.93,.55,1.53,1.43,1.53s1.43-.61,1.43-1.53Z"/><path class="cls-4" d="M75.94,95.48h-1.12v-7.43h1.12v.53c.41-.49,.95-.65,1.43-.65,1.27,0,2.34,.97,2.34,2.5,0,1.62-1.19,2.58-2.33,2.58-.26,0-.94-.09-1.44-.71v3.18Zm-.07-4.99c0,1.01,.65,1.52,1.36,1.52,.81,0,1.34-.7,1.34-1.53s-.53-1.54-1.34-1.54c-.71,0-1.36,.5-1.36,1.55Z"/></g><g><rect class="cls-1" x="24.74" y="5.46" width="62.51" height="62.51" rx="17.79" ry="17.79"/><g><path class="cls-3" d="M70.54,47.6h-29.09v-11.18c0-1.93,1.57-3.5,3.5-3.5s3.5,1.57,3.5,3.5v4.17h15.08v-4.17c0-1.93,1.57-3.5,3.5-3.5s3.5,1.57,3.5,3.5v11.18Z"/><polygon class="cls-2" points="56 35.02 44.83 23.85 56 23.85 67.17 23.85 56 35.02"/></g></g></svg>