<?xml version="1.0" encoding="UTF-8"?><svg id="Calque_1" xmlns="http://www.w3.org/2000/svg" xmlns:xlink="http://www.w3.org/1999/xlink" viewBox="0 0 112 112"><defs><style>.cls-1{fill:url(#Dégradé_sans_nom_434);filter:url(#drop-shadow-1);}.cls-2{fill:#fff;}.cls-3{fill:#2e6575;}</style><linearGradient id="Dégradé_sans_nom_434" x1="56" y1="5.46" x2="56" y2="67.98" gradientUnits="userSpaceOnUse"><stop offset="0" stop-color="#7ad6cf"/><stop offset=".16" stop-color="#75d3cc"/><stop offset=".35" stop-color="#66cdc5"/><stop offset=".55" stop-color="#4fc3ba"/><stop offset=".76" stop-color="#2eb5aa"/><stop offset=".98" stop-color="#04a496"/><stop offset="1" stop-color="#00a294"/></linearGradient><filter id="drop-shadow-1" filterUnits="userSpaceOnUse"><feOffset dx="0" dy="2.92"/><feGaussianBlur result="blur" stdDeviation="1.75"/><feFlood flood-color="#4f8a9e" flood-opacity=".3"/><feComposite in2="blur" operator="in"/><feComposite in="SourceGraphic"/></filter></defs><g><path class="cls-3" d="M45.6,91.77c-.21,.37-.5,.69-.81,.88-.39,.25-.9,.37-1.42,.37-.64,0-1.17-.16-1.62-.62s-.71-1.12-.71-1.84,.26-1.46,.77-1.98c.4-.4,.93-.65,1.61-.65,.77,0,1.26,.33,1.54,.63,.62,.64,.67,1.53,.67,2.03v.14h-3.45c.02,.34,.17,.73,.41,.97,.26,.26,.58,.31,.86,.31,.31,0,.54-.07,.77-.24,.19-.15,.34-.34,.45-.53l.94,.53Zm-1.11-1.95c-.04-.26-.17-.49-.34-.65-.15-.14-.39-.27-.75-.27-.39,0-.64,.16-.79,.31-.16,.15-.29,.38-.34,.62h2.23Z"/><path class="cls-3" d="M47.25,89.85h2.74v1.17h-2.74v-1.17Z"/><path class="cls-3" d="M53.59,86.34v6.53h-1.17v-6.53h-1.75v-1.1h4.66v1.1h-1.75Z"/><path class="cls-3" d="M60.39,91.02h-3.26l-.83,1.84h-1.26l3.79-8.07,3.61,8.07h-1.26l-.8-1.84Zm-.47-1.1l-1.13-2.58-1.18,2.58h2.31Z"/><path class="cls-3" d="M68.98,92.44c-.59,.38-1.26,.57-2.14,.57-2.29,0-3.97-1.69-3.97-3.95s1.68-3.95,3.97-3.95,3.97,1.71,3.97,3.95c0,1.39-.62,2.26-1.05,2.73l1.23,1.22h-1.44l-.57-.57Zm-.01-1.44c.37-.42,.67-.98,.67-1.94,0-1.69-1.17-2.88-2.8-2.88s-2.8,1.19-2.8,2.88,1.17,2.88,2.8,2.88c.57,0,.98-.13,1.31-.3l-1.81-1.79h1.45l1.17,1.15Z"/><path class="cls-3" d="M35.28,103.34l1.6-8.19,2.65,5.92,2.67-5.92,1.44,8.19h-1.19l-.78-4.59-2.22,4.95-2.19-4.96-.8,4.61h-1.19Z"/><path class="cls-3" d="M48.55,98.53h1.12v4.81h-1.12v-.5c-.49,.57-1.1,.65-1.44,.65-1.49,0-2.33-1.23-2.33-2.56,0-1.57,1.07-2.53,2.34-2.53,.35,0,.97,.09,1.43,.69v-.56Zm-2.63,2.42c0,.83,.53,1.53,1.34,1.53,.71,0,1.36-.51,1.36-1.52s-.65-1.55-1.36-1.55c-.81,0-1.34,.69-1.34,1.54Z"/><path class="cls-3" d="M51.08,98.53h1.12v.45c.48-.54,1.03-.57,1.3-.57,.89,0,1.27,.45,1.42,.65,.18,.26,.3,.59,.3,1.34v2.95h-1.12v-2.67c0-1.22-.46-1.26-.88-1.26-.5,0-1.02,.07-1.02,1.62v2.31h-1.12v-4.81Z"/><path class="cls-3" d="M60.15,98.53h1.12v4.81h-1.12v-.5c-.49,.57-1.1,.65-1.44,.65-1.49,0-2.33-1.23-2.33-2.56,0-1.57,1.07-2.53,2.34-2.53,.35,0,.97,.09,1.43,.69v-.56Zm-2.63,2.42c0,.83,.53,1.53,1.34,1.53,.71,0,1.36-.51,1.36-1.52s-.65-1.55-1.36-1.55c-.81,0-1.34,.69-1.34,1.54Z"/><path class="cls-3" d="M66.21,98.53h1.12v4.42c0,1.13-.13,1.94-.79,2.5-.31,.25-.81,.51-1.6,.51-.56,0-1.12-.14-1.58-.59-.35-.35-.63-.91-.71-1.5h1.09c.05,.26,.18,.57,.35,.75,.14,.15,.41,.33,.87,.33s.74-.18,.88-.32c.37-.35,.37-.86,.37-1.21v-.63c-.51,.65-1.14,.69-1.46,.69-.62,0-1.13-.17-1.59-.65-.43-.46-.72-1.11-.72-1.91,0-.88,.33-1.49,.71-1.86,.48-.49,1.05-.66,1.63-.66,.48,0,1.02,.16,1.43,.65v-.53Zm-2.14,1.2c-.29,.26-.49,.71-.49,1.22,0,.48,.18,.95,.48,1.21,.21,.18,.51,.32,.86,.32s.66-.1,.94-.39c.33-.35,.42-.77,.42-1.13,0-.54-.17-.94-.46-1.21-.27-.27-.58-.34-.9-.34s-.59,.08-.85,.32Z"/><path class="cls-3" d="M73.06,102.24c-.21,.37-.5,.69-.81,.88-.39,.25-.9,.37-1.42,.37-.64,0-1.17-.16-1.62-.62s-.71-1.12-.71-1.84,.26-1.46,.77-1.98c.4-.4,.93-.65,1.61-.65,.77,0,1.26,.33,1.54,.63,.62,.64,.67,1.53,.67,2.03v.14h-3.45c.02,.34,.17,.73,.41,.97,.26,.26,.58,.31,.86,.31,.31,0,.54-.07,.77-.24,.19-.15,.34-.34,.45-.53l.94,.53Zm-1.11-1.96c-.04-.26-.17-.49-.34-.65-.15-.14-.39-.27-.75-.27-.39,0-.64,.16-.79,.31-.16,.15-.29,.38-.34,.62h2.23Z"/><path class="cls-3" d="M74.26,98.53h1.12v.43c.12-.15,.31-.31,.47-.4,.22-.13,.43-.16,.69-.16,.27,0,.57,.05,.88,.23l-.46,1.02c-.25-.16-.46-.17-.57-.17-.24,0-.48,.03-.7,.26-.31,.33-.31,.79-.31,1.11v2.49h-1.12v-4.81Z"/></g><g><rect class="cls-1" x="24.74" y="5.46" width="62.51" height="62.51" rx="17.79" ry="17.79"/><g><circle class="cls-2" cx="66.82" cy="34.02" r="5.62"/><g><circle class="cls-2" cx="51.36" cy="22.48" r="5.62"/><circle class="cls-3" cx="51.36" cy="50.96" r="5.62"/><g><path class="cls-2" d="M64.82,35.1v9.46c0,2.32-1.88,4.2-4.2,4.2h-1.24c.19,.7,.3,1.43,.3,2.19s-.11,1.49-.3,2.19h1.24c4.73,0,8.58-3.85,8.58-8.58v-9.46h-4.38Z"/><path class="cls-2" d="M53.55,42.94V21.45h-4.38v21.49c.7-.19,1.43-.3,2.19-.3s1.49,.11,2.19,.3Z"/></g></g></g></g></svg>