<?xml version="1.0" encoding="UTF-8"?><svg id="Calque_1" xmlns="http://www.w3.org/2000/svg" xmlns:xlink="http://www.w3.org/1999/xlink" viewBox="0 0 112 112"><defs><style>.cls-1{fill:url(#Dégradé_sans_nom_401);filter:url(#drop-shadow-1);}.cls-2{fill:#00b0a3;}.cls-3{fill:#fff;}.cls-4{fill:#2e6575;}</style><linearGradient id="Dégradé_sans_nom_401" x1="56" y1="5.46" x2="56" y2="67.98" gradientUnits="userSpaceOnUse"><stop offset="0" stop-color="#2e6575"/><stop offset=".28" stop-color="#296070"/><stop offset=".6" stop-color="#1b5165"/><stop offset=".94" stop-color="#043a51"/><stop offset="1" stop-color="#00364e"/></linearGradient><filter id="drop-shadow-1" filterUnits="userSpaceOnUse"><feOffset dx="0" dy="2.92"/><feGaussianBlur result="blur" stdDeviation="1.75"/><feFlood flood-color="#4f8a9e" flood-opacity=".3"/><feComposite in2="blur" operator="in"/><feComposite in="SourceGraphic"/></filter></defs><g><path class="cls-4" d="M45.63,91.77c-.21,.37-.5,.69-.81,.88-.39,.25-.9,.37-1.42,.37-.64,0-1.17-.16-1.62-.62-.46-.46-.71-1.12-.71-1.84s.26-1.46,.77-1.98c.4-.4,.93-.65,1.61-.65,.77,0,1.26,.33,1.54,.63,.62,.64,.67,1.53,.67,2.03v.14h-3.45c.02,.34,.17,.73,.41,.97,.26,.26,.58,.31,.86,.31,.31,0,.54-.07,.77-.24,.19-.15,.34-.34,.45-.53l.94,.53Zm-1.11-1.95c-.05-.26-.17-.49-.34-.65-.15-.14-.39-.27-.75-.27-.39,0-.64,.16-.79,.31-.16,.15-.29,.38-.34,.62h2.23Z"/><path class="cls-4" d="M47.29,89.85h2.74v1.17h-2.74v-1.17Z"/><path class="cls-4" d="M53.63,86.34v6.53h-1.17v-6.53h-1.75v-1.1h4.66v1.1h-1.75Z"/><path class="cls-4" d="M60.43,91.02h-3.26l-.83,1.84h-1.26l3.79-8.07,3.61,8.07h-1.26l-.8-1.84Zm-.47-1.1l-1.13-2.58-1.18,2.58h2.31Z"/><path class="cls-4" d="M69.01,92.44c-.59,.38-1.26,.57-2.14,.57-2.29,0-3.97-1.69-3.97-3.95s1.68-3.95,3.97-3.95,3.97,1.71,3.97,3.95c0,1.39-.62,2.26-1.05,2.73l1.23,1.22h-1.44l-.57-.57Zm-.01-1.44c.37-.42,.67-.98,.67-1.94,0-1.69-1.17-2.88-2.8-2.88s-2.8,1.19-2.8,2.88,1.17,2.88,2.8,2.88c.57,0,.98-.13,1.31-.3l-1.81-1.79h1.45l1.17,1.15Z"/></g><g><rect class="cls-1" x="24.74" y="5.46" width="62.51" height="62.51" rx="17.79" ry="17.79"/><g><circle class="cls-3" cx="64.98" cy="34.02" r="5.62"/><g><circle class="cls-3" cx="49.52" cy="22.48" r="5.62"/><circle class="cls-2" cx="49.52" cy="50.96" r="5.62"/><g><path class="cls-3" d="M62.98,35.1v9.46c0,2.32-1.88,4.2-4.2,4.2h-1.24c.19,.7,.3,1.43,.3,2.19s-.11,1.49-.3,2.19h1.24c4.73,0,8.58-3.85,8.58-8.58v-9.46h-4.38Z"/><path class="cls-3" d="M51.71,42.94V21.45h-4.38v21.49c.7-.19,1.43-.3,2.19-.3s1.49,.11,2.19,.3Z"/></g></g></g></g></svg>