<?xml version="1.0" encoding="UTF-8"?><svg id="Calque_1" xmlns="http://www.w3.org/2000/svg" viewBox="0 0 60.63 60.63"><defs><style>.cls-1{fill:#00b0a3;}.cls-2{fill:#b2e7e3;}.cls-3{fill:#2e6575;}</style></defs><g><path class="cls-2" d="M30.32,24.48c1.63,0,3.19,.27,4.66,.75l2.63-6.95c-2.29-.79-4.74-1.24-7.3-1.24s-5.01,.45-7.3,1.24l2.63,6.95c1.47-.48,3.03-.75,4.66-.75Z"/><path class="cls-3" d="M24.39,25.71l-2.64-6.96c-4.1,1.7-7.59,4.58-10.04,8.22l6.31,3.96c1.59-2.28,3.79-4.1,6.36-5.22Z"/><path class="cls-2" d="M42.61,30.93l6.31-3.96c-2.45-3.64-5.94-6.52-10.04-8.22l-2.64,6.96c2.58,1.12,4.78,2.94,6.36,5.22Z"/><path class="cls-3" d="M7.9,39.45c0,2.05,1.67,3.72,3.72,3.72s3.72-1.67,3.72-3.72c0-2.68,.72-5.19,1.96-7.37l-6.29-3.95c-1.96,3.33-3.11,7.19-3.11,11.33Z"/><path class="cls-2" d="M45.29,39.45c0,2.05,1.67,3.72,3.72,3.72s3.72-1.67,3.72-3.72c0-4.13-1.14-8-3.1-11.33l-6.29,3.95c1.24,2.18,1.96,4.69,1.96,7.37Z"/></g><g><path class="cls-1" d="M32.32,34.59h0s-9.53-4.53-9.53-4.53l3.21,10.05h0c.19,.55,.48,1.08,.89,1.55,1.65,1.89,4.53,2.08,6.42,.43,1.89-1.65,2.08-4.53,.43-6.42-.41-.47-.9-.83-1.42-1.09Z"/><line class="cls-1" x1="28.63" y1="36.74" x2="32.32" y2="40.96"/><line class="cls-1" x1="28.49" y1="40.27" x2="32.14" y2="37.08"/></g></svg>