<svg viewBox="0 0 60.63 60.63" xmlns="http://www.w3.org/2000/svg"><g fill="#2e6575"><path d="m30.32 24.48c-1.63 0-3.19.27-4.66.75l-2.63-6.95c2.29-.79 4.74-1.24 7.3-1.24s5.01.45 7.3 1.24l-2.63 6.95c-1.47-.48-3.03-.75-4.66-.75z"/><path d="m36.25 25.71 2.64-6.96c4.1 1.7 7.59 4.58 10.04 8.22l-6.31 3.96c-1.59-2.28-3.79-4.1-6.36-5.22z"/><path d="m18.02 30.93-6.31-3.96c2.45-3.64 5.94-6.52 10.04-8.22l2.64 6.96c-2.58 1.12-4.78 2.94-6.36 5.22z"/></g><path d="m52.73 39.45c0 2.05-1.67 3.72-3.72 3.72s-3.72-1.67-3.72-3.72c0-2.68-.72-5.19-1.96-7.37l6.29-3.95c1.96 3.33 3.11 7.19 3.11 11.33z" fill="#b2e7e3"/><path d="m15.34 39.45c0 2.05-1.67 3.72-3.72 3.72s-3.72-1.67-3.72-3.72c0-4.13 1.14-8 3.1-11.33l6.29 3.95c-1.24 2.18-1.96 4.69-1.96 7.37z" fill="#2e6575"/><path d="m28.32 34.59s9.53-4.53 9.53-4.53l-3.21 10.05c-.19.55-.48 1.08-.89 1.55-1.65 1.89-4.53 2.08-6.42.43s-2.08-4.53-.43-6.42c.41-.47.9-.83 1.42-1.09z" fill="#00b0a3"/><path d="m32.01 36.74-3.7 4.22" fill="#00b0a3"/><path d="m32.14 40.27-3.65-3.19" fill="#00b0a3"/></svg>