<?xml version="1.0" encoding="UTF-8"?><svg id="Calque_1" xmlns="http://www.w3.org/2000/svg" viewBox="0 0 60.63 60.63"><defs><style>.cls-1{fill:#00b0a3;}.cls-2{fill:#2e6575;}</style></defs><g><path class="cls-2" d="M30.32,24.48c-1.63,0-3.19,.27-4.66,.75l-2.63-6.95c2.29-.79,4.74-1.24,7.3-1.24s5.01,.45,7.3,1.24l-2.63,6.95c-1.47-.48-3.03-.75-4.66-.75Z"/><path class="cls-2" d="M36.25,25.71l2.64-6.96c4.1,1.7,7.59,4.58,10.04,8.22l-6.31,3.96c-1.59-2.28-3.79-4.1-6.36-5.22Z"/><path class="cls-2" d="M18.02,30.93l-6.31-3.96c2.45-3.64,5.94-6.52,10.04-8.22l2.64,6.96c-2.58,1.12-4.78,2.94-6.36,5.22Z"/><path class="cls-2" d="M52.73,39.45c0,2.05-1.67,3.72-3.72,3.72s-3.72-1.67-3.72-3.72c0-2.68-.72-5.19-1.96-7.37l6.29-3.95c1.96,3.33,3.11,7.19,3.11,11.33Z"/><path class="cls-2" d="M15.34,39.45c0,2.05-1.67,3.72-3.72,3.72s-3.72-1.67-3.72-3.72c0-4.13,1.14-8,3.1-11.33l6.29,3.95c-1.24,2.18-1.96,4.69-1.96,7.37Z"/></g><g><path class="cls-1" d="M31.7,34.34h0s10.01,3.33,10.01,3.33l-9.27,5.03h0c-.52,.27-1.1,.44-1.72,.5-2.5,.22-4.71-1.63-4.93-4.13s1.63-4.71,4.13-4.93c.62-.05,1.22,.02,1.78,.2Z"/><line class="cls-1" x1="32.87" y1="38.45" x2="27.29" y2="38.94"/><line class="cls-1" x1="30.53" y1="41.08" x2="30.11" y2="36.26"/></g></svg>