<?xml version="1.0" encoding="UTF-8"?><svg id="Calque_1" xmlns="http://www.w3.org/2000/svg" xmlns:xlink="http://www.w3.org/1999/xlink" viewBox="0 0 112 112"><defs><style>.cls-1{fill:url(#Dégradé_sans_nom_401);filter:url(#drop-shadow-1);}.cls-2{fill:#00b0a3;}.cls-3{fill:#fff;}.cls-4{fill:#2e6575;}</style><linearGradient id="Dégradé_sans_nom_401" x1="56" y1="5.46" x2="56" y2="67.98" gradientUnits="userSpaceOnUse"><stop offset="0" stop-color="#2e6575"/><stop offset=".28" stop-color="#296070"/><stop offset=".6" stop-color="#1b5165"/><stop offset=".94" stop-color="#043a51"/><stop offset="1" stop-color="#00364e"/></linearGradient><filter id="drop-shadow-1" filterUnits="userSpaceOnUse"><feOffset dx="0" dy="2.92"/><feGaussianBlur result="blur" stdDeviation="1.75"/><feFlood flood-color="#4f8a9e" flood-opacity=".3"/><feComposite in2="blur" operator="in"/><feComposite in="SourceGraphic"/></filter></defs><g><path class="cls-4" d="M44.35,93.38l1.6-8.19,2.65,5.92,2.67-5.92,1.44,8.19h-1.19l-.78-4.59-2.22,4.95-2.19-4.96-.8,4.61h-1.19Z"/><path class="cls-4" d="M57.61,87.45c-.07-.17-.17-.33-.34-.48-.24-.19-.49-.27-.82-.27-.71,0-1.07,.42-1.07,.91,0,.23,.08,.63,.82,.93l.77,.31c1.41,.57,1.79,1.37,1.79,2.24,0,1.45-1.03,2.45-2.46,2.45-.88,0-1.41-.33-1.79-.77-.41-.46-.59-.96-.64-1.49l1.15-.25c0,.38,.14,.73,.32,.97,.22,.27,.54,.46,.99,.46,.71,0,1.26-.51,1.26-1.28s-.59-1.1-1.1-1.3l-.73-.31c-.63-.26-1.55-.79-1.55-1.93,0-1.03,.8-2.01,2.23-2.01,.82,0,1.29,.31,1.53,.51,.21,.18,.42,.45,.58,.77l-.94,.55Z"/><path class="cls-4" d="M67.78,89.57c0,2.24-1.68,3.95-3.97,3.95s-3.97-1.71-3.97-3.95,1.68-3.95,3.97-3.95,3.97,1.71,3.97,3.95Zm-1.17,0c0-1.69-1.17-2.88-2.8-2.88s-2.8,1.19-2.8,2.88,1.17,2.88,2.8,2.88,2.8-1.19,2.8-2.88Z"/></g><g><rect class="cls-1" x="24.74" y="5.46" width="62.51" height="62.51" rx="17.79" ry="17.79"/><g><path class="cls-3" d="M69.56,17.51c-1.97-.7-4.13,.33-4.82,2.3l-5.93,16.74,4.46,10.04,8.59-24.26c.7-1.97-.33-4.13-2.3-4.82Z"/><g><path class="cls-2" d="M43.7,44.75c-.43,0-.87-.08-1.3-.23-1.96-.72-2.96-2.89-2.24-4.85l4.62-12.58c.72-1.96,2.89-2.96,4.85-2.24,1.96,.72,2.96,2.89,2.24,4.85l-4.62,12.58c-.56,1.53-2.01,2.48-3.55,2.48Z"/><path class="cls-3" d="M61.45,48.63l-7.6-17.11-3.74,10.18,4.44,9.99c.63,1.41,2.01,2.25,3.45,2.25,.51,0,1.03-.11,1.53-.33,1.91-.85,2.77-3.08,1.92-4.98Z"/></g></g></g></svg>