<?xml version="1.0" encoding="UTF-8"?><svg id="Calque_1" xmlns="http://www.w3.org/2000/svg" xmlns:xlink="http://www.w3.org/1999/xlink" viewBox="0 0 112 112"><defs><style>.cls-1{fill:url(#Dégradé_sans_nom_434);filter:url(#drop-shadow-1);}.cls-2{fill:#fff;}.cls-3{fill:#2e6575;}</style><linearGradient id="Dégradé_sans_nom_434" x1="56" y1="5.46" x2="56" y2="67.98" gradientUnits="userSpaceOnUse"><stop offset="0" stop-color="#7ad6cf"/><stop offset=".16" stop-color="#75d3cc"/><stop offset=".35" stop-color="#66cdc5"/><stop offset=".55" stop-color="#4fc3ba"/><stop offset=".76" stop-color="#2eb5aa"/><stop offset=".98" stop-color="#04a496"/><stop offset="1" stop-color="#00a294"/></linearGradient><filter id="drop-shadow-1" filterUnits="userSpaceOnUse"><feOffset dx="0" dy="2.92"/><feGaussianBlur result="blur" stdDeviation="1.75"/><feFlood flood-color="#4f8a9e" flood-opacity=".3"/><feComposite in2="blur" operator="in"/><feComposite in="SourceGraphic"/></filter></defs><g><path class="cls-3" d="M44.32,92.86l1.6-8.19,2.65,5.92,2.67-5.92,1.44,8.19h-1.19l-.78-4.59-2.22,4.95-2.19-4.96-.8,4.61h-1.19Z"/><path class="cls-3" d="M57.58,86.93c-.07-.17-.17-.33-.34-.48-.24-.19-.49-.27-.82-.27-.71,0-1.07,.42-1.07,.91,0,.23,.08,.63,.82,.93l.77,.31c1.41,.57,1.79,1.37,1.79,2.24,0,1.45-1.03,2.45-2.46,2.45-.88,0-1.41-.33-1.79-.77-.41-.46-.59-.96-.64-1.49l1.15-.25c0,.38,.14,.73,.32,.97,.22,.27,.54,.46,.99,.46,.71,0,1.26-.51,1.26-1.28s-.59-1.1-1.1-1.3l-.73-.31c-.63-.26-1.55-.79-1.55-1.93,0-1.03,.8-2.01,2.23-2.01,.82,0,1.29,.31,1.53,.51,.21,.18,.42,.45,.58,.77l-.94,.55Z"/><path class="cls-3" d="M67.75,89.06c0,2.24-1.68,3.95-3.97,3.95s-3.97-1.71-3.97-3.95,1.68-3.95,3.97-3.95,3.97,1.71,3.97,3.95Zm-1.17,0c0-1.69-1.17-2.88-2.8-2.88s-2.8,1.19-2.8,2.88,1.17,2.88,2.8,2.88,2.8-1.19,2.8-2.88Z"/><path class="cls-3" d="M35.27,103.34l1.6-8.19,2.65,5.92,2.67-5.92,1.44,8.19h-1.19l-.78-4.59-2.22,4.95-2.19-4.96-.8,4.61h-1.19Z"/><path class="cls-3" d="M48.55,98.53h1.12v4.81h-1.12v-.5c-.49,.57-1.1,.65-1.44,.65-1.49,0-2.33-1.23-2.33-2.56,0-1.57,1.07-2.53,2.34-2.53,.35,0,.97,.09,1.43,.69v-.56Zm-2.63,2.42c0,.83,.53,1.53,1.34,1.53,.71,0,1.36-.51,1.36-1.52s-.65-1.55-1.36-1.55c-.81,0-1.34,.69-1.34,1.54Z"/><path class="cls-3" d="M51.08,98.53h1.12v.45c.48-.54,1.03-.57,1.3-.57,.89,0,1.27,.45,1.42,.65,.18,.26,.3,.59,.3,1.34v2.95h-1.12v-2.67c0-1.22-.46-1.26-.88-1.26-.5,0-1.02,.07-1.02,1.62v2.31h-1.12v-4.81Z"/><path class="cls-3" d="M60.15,98.53h1.12v4.81h-1.12v-.5c-.49,.57-1.1,.65-1.44,.65-1.49,0-2.33-1.23-2.33-2.56,0-1.57,1.07-2.53,2.34-2.53,.35,0,.97,.09,1.43,.69v-.56Zm-2.63,2.42c0,.83,.53,1.53,1.34,1.53,.71,0,1.36-.51,1.36-1.52s-.65-1.55-1.36-1.55c-.81,0-1.34,.69-1.34,1.54Z"/><path class="cls-3" d="M66.21,98.53h1.12v4.42c0,1.13-.13,1.94-.79,2.5-.31,.25-.81,.51-1.6,.51-.56,0-1.12-.14-1.58-.59-.35-.35-.63-.91-.71-1.5h1.09c.05,.26,.18,.57,.35,.75,.14,.15,.41,.33,.87,.33s.74-.18,.88-.32c.37-.35,.37-.86,.37-1.21v-.63c-.51,.65-1.14,.69-1.46,.69-.62,0-1.13-.17-1.59-.65-.43-.46-.72-1.11-.72-1.91,0-.88,.33-1.49,.71-1.86,.48-.49,1.05-.66,1.63-.66,.48,0,1.02,.16,1.43,.65v-.53Zm-2.14,1.2c-.29,.26-.49,.71-.49,1.22,0,.48,.18,.95,.48,1.21,.21,.18,.51,.32,.86,.32s.66-.1,.94-.39c.33-.35,.42-.77,.42-1.13,0-.54-.17-.94-.46-1.21-.27-.27-.58-.34-.9-.34s-.59,.08-.85,.32Z"/><path class="cls-3" d="M73.06,102.24c-.21,.37-.5,.69-.81,.88-.39,.25-.9,.37-1.42,.37-.64,0-1.17-.16-1.62-.62s-.71-1.12-.71-1.84,.26-1.46,.77-1.98c.4-.4,.93-.65,1.61-.65,.77,0,1.26,.33,1.54,.63,.62,.64,.67,1.53,.67,2.03v.14h-3.45c.02,.34,.17,.73,.41,.97,.26,.26,.58,.31,.86,.31,.31,0,.54-.07,.77-.24,.19-.15,.34-.34,.45-.53l.94,.53Zm-1.11-1.96c-.04-.26-.17-.49-.34-.65-.15-.14-.39-.27-.75-.27-.39,0-.64,.16-.79,.31-.16,.15-.29,.38-.34,.62h2.23Z"/><path class="cls-3" d="M74.26,98.53h1.12v.43c.13-.15,.31-.31,.47-.4,.22-.13,.43-.16,.69-.16,.27,0,.57,.05,.88,.23l-.46,1.02c-.25-.16-.46-.17-.57-.17-.24,0-.48,.03-.7,.26-.31,.33-.31,.79-.31,1.11v2.49h-1.12v-4.81Z"/></g><g><rect class="cls-1" x="24.74" y="5.46" width="62.51" height="62.51" rx="17.79" ry="17.79"/><g><path class="cls-2" d="M71.4,17c-1.97-.7-4.13,.33-4.82,2.3l-5.93,16.74,4.46,10.04,8.59-24.26c.7-1.97-.33-4.13-2.3-4.82Z"/><g><path class="cls-3" d="M45.54,44.23c-.43,0-.87-.08-1.3-.23-1.96-.72-2.96-2.89-2.24-4.85l4.62-12.58c.72-1.96,2.89-2.96,4.85-2.24,1.96,.72,2.96,2.89,2.24,4.85l-4.62,12.58c-.56,1.53-2.01,2.48-3.55,2.48Z"/><path class="cls-2" d="M63.29,48.12l-7.6-17.11-3.74,10.18,4.44,9.99c.63,1.41,2.01,2.25,3.45,2.25,.51,0,1.03-.11,1.53-.33,1.91-.85,2.77-3.08,1.92-4.98Z"/></g></g></g></svg>