<?xml version="1.0" encoding="UTF-8"?><svg id="Calque_1" xmlns="http://www.w3.org/2000/svg" viewBox="0 0 300.76 45.95"><defs><style>.cls-1{fill:#00b0a3;}.cls-2{fill:#2e6575;}</style></defs><g><path class="cls-2" d="M50.21,31.17v-.97c1.59,.47,3.25,.71,4.97,.71,1.89,0,3.26-.29,4.09-.88,.83-.58,1.25-1.55,1.25-2.9,0-.85-.16-1.5-.47-1.96s-.75-.83-1.33-1.1c-.57-.27-1.51-.63-2.8-1.08l-.78-.26c-.12-.05-.4-.14-.82-.26-1.1-.37-1.94-.71-2.54-1.01-.6-.3-1.1-.73-1.49-1.31-.4-.57-.6-1.34-.6-2.32,0-1.5,.48-2.61,1.44-3.34,.96-.73,2.5-1.1,4.61-1.1,1.74,0,3.23,.19,4.45,.56v.97c-1.42-.4-2.85-.6-4.3-.6-1.94,0-3.29,.27-4.05,.82-.76,.55-1.14,1.43-1.14,2.65,0,.8,.15,1.42,.45,1.87,.3,.45,.76,.82,1.38,1.1,.62,.29,1.59,.64,2.91,1.06,1.54,.5,2.72,.93,3.53,1.31,.81,.37,1.44,.87,1.89,1.5,.45,.62,.67,1.46,.67,2.5,0,1.67-.54,2.87-1.61,3.61-1.07,.73-2.62,1.1-4.63,1.1s-3.61-.22-5.08-.67Z"/><path class="cls-2" d="M68.26,30.05c-1.12-1.2-1.68-2.89-1.68-5.08V13.75h1.05v11.21c0,1.97,.49,3.45,1.46,4.45,.97,1,2.5,1.5,4.6,1.5,2.47,0,4.65-.97,6.54-2.92V13.75h1.05V31.46h-.86l-.19-2.32c-1.02,.92-2.06,1.6-3.12,2.04-1.06,.44-2.39,.65-3.98,.65-2.12,0-3.74-.6-4.86-1.79Z"/><path class="cls-2" d="M87.25,13.75h.86l.15,2.13c.87-.87,1.84-1.51,2.9-1.91s2.29-.6,3.68-.6c2.57,0,4.52,.74,5.87,2.21s2.02,3.77,2.02,6.91-.72,5.48-2.15,7.03c-1.43,1.54-3.42,2.32-5.96,2.32-1.35,0-2.5-.16-3.48-.47-.97-.31-1.92-.83-2.84-1.55v9.72h-1.05V13.75Zm12.63,15.1c1.22-1.37,1.83-3.49,1.83-6.35s-.55-4.85-1.66-6.18c-1.11-1.33-2.91-2-5.4-2-1.3,0-2.46,.21-3.49,.63-1.03,.42-1.99,1.1-2.86,2.02v11.77c.87,.7,1.77,1.23,2.71,1.61,.93,.37,2.05,.56,3.34,.56,2.47,0,4.31-.68,5.53-2.06Z"/><path class="cls-2" d="M109.26,29.62c-1.37-1.48-2.06-3.87-2.06-7.16,0-2.96,.63-5.22,1.89-6.76,1.26-1.54,3.27-2.32,6.04-2.32,2.34,0,4.09,.64,5.23,1.92,1.15,1.28,1.72,2.93,1.72,4.95v3.06h-13.83c.05,1.79,.33,3.24,.84,4.33,.51,1.1,1.35,1.91,2.5,2.45,1.16,.54,2.72,.8,4.69,.8,1.52,0,3.05-.31,4.6-.93v.97c-1.52,.6-3.11,.9-4.78,.9-3.19,0-5.47-.74-6.84-2.22Zm11.77-7.27v-1.94c0-1.92-.48-3.41-1.44-4.48-.96-1.07-2.45-1.61-4.47-1.61-2.47,0-4.23,.68-5.29,2.05-1.06,1.37-1.59,3.36-1.59,5.98h12.78Z"/><path class="cls-2" d="M127.31,13.75h.86l.19,2.65c.95-.67,2.01-1.28,3.19-1.81,1.18-.54,2.36-.94,3.53-1.21v.97c-1.12,.27-2.34,.71-3.64,1.31-1.31,.6-2.34,1.18-3.08,1.76v14.05h-1.05V13.75Z"/><path class="cls-2" d="M137.51,13.75h1.08l6.54,17.12,6.61-17.12h1.05l-6.88,17.71h-1.49l-6.91-17.71Z"/><path class="cls-2" d="M159.59,14.72h-2.88v-.97h3.92V31.46h-1.05V14.72Zm-.26-7.7h1.31v1.64h-1.31v-1.64Z"/><path class="cls-2" d="M166.39,31.17v-.97c1.59,.47,3.25,.71,4.97,.71,1.89,0,3.26-.29,4.09-.88,.83-.58,1.25-1.55,1.25-2.9,0-.85-.16-1.5-.47-1.96s-.75-.83-1.33-1.1c-.57-.27-1.51-.63-2.8-1.08l-.78-.26c-.12-.05-.4-.14-.82-.26-1.1-.37-1.94-.71-2.54-1.01-.6-.3-1.1-.73-1.49-1.31-.4-.57-.6-1.34-.6-2.32,0-1.5,.48-2.61,1.44-3.34,.96-.73,2.5-1.1,4.61-1.1,1.74,0,3.23,.19,4.45,.56v.97c-1.42-.4-2.85-.6-4.3-.6-1.94,0-3.29,.27-4.05,.82-.76,.55-1.14,1.43-1.14,2.65,0,.8,.15,1.42,.45,1.87,.3,.45,.76,.82,1.38,1.1,.62,.29,1.59,.64,2.91,1.06,1.54,.5,2.72,.93,3.53,1.31,.81,.37,1.44,.87,1.89,1.5,.45,.62,.67,1.46,.67,2.5,0,1.67-.54,2.87-1.61,3.61-1.07,.73-2.62,1.1-4.63,1.1s-3.61-.22-5.08-.67Z"/><path class="cls-2" d="M185.83,14.72h-2.88v-.97h3.92V31.46h-1.05V14.72Zm-.26-7.7h1.31v1.64h-1.31v-1.64Z"/><path class="cls-2" d="M194.03,29.54c-1.28-1.53-1.92-3.84-1.92-6.93s.65-5.37,1.94-6.91c1.29-1.54,3.34-2.32,6.13-2.32s4.83,.77,6.13,2.32c1.29,1.54,1.94,3.85,1.94,6.91s-.64,5.4-1.92,6.93c-1.28,1.53-3.33,2.3-6.15,2.3s-4.86-.77-6.15-2.3Zm11.58-.65c1.08-1.35,1.63-3.44,1.63-6.28s-.55-4.93-1.64-6.28c-1.1-1.35-2.9-2.02-5.42-2.02s-4.32,.67-5.42,2.02c-1.1,1.35-1.64,3.44-1.64,6.28s.54,4.93,1.63,6.28c1.08,1.34,2.9,2.02,5.44,2.02s4.35-.67,5.44-2.02Z"/><path class="cls-2" d="M213.48,13.75h.86l.19,2.32c1-.87,2.09-1.54,3.27-2,1.18-.46,2.58-.69,4.2-.69,2.14,0,3.71,.5,4.69,1.5,.98,1,1.48,2.58,1.48,4.75v11.85h-1.05v-11.85c0-1.32-.17-2.36-.5-3.12-.34-.76-.92-1.31-1.74-1.66-.82-.35-1.97-.52-3.44-.52-1.35,0-2.6,.26-3.76,.78-1.16,.52-2.21,1.23-3.16,2.13v14.24h-1.05V13.75Z"/></g><g><path class="cls-2" d="M26.37,23.33c-1.82,0-3.29-1.47-3.29-3.29,0-1.17,.62-2.2,1.55-2.78-.63-.22-1.3-.35-2-.35-3.35,0-6.06,2.71-6.06,6.06s2.71,6.06,6.06,6.06,6.06-2.71,6.06-6.06c0-.19-.01-.38-.03-.57-.59,.57-1.4,.93-2.29,.93Z"/><path class="cls-1" d="M22.63,34.72c-5.83,0-11.25-3.74-15.68-10.81-.36-.57-.36-1.29,0-1.86,4.43-7.07,9.85-10.81,15.68-10.81s11.25,3.74,15.68,10.81c.36,.57,.36,1.29,0,1.86-4.43,7.07-9.85,10.81-15.68,10.81Zm-12.1-11.74c2.66,3.95,6.76,8.23,12.1,8.23s9.44-4.28,12.1-8.23c-2.66-3.95-6.76-8.23-12.1-8.23s-9.44,4.28-12.1,8.23Z"/></g></svg>