<?xml version="1.0" encoding="utf-8"?>
<!-- Generator: Adobe Illustrator 26.0.3, SVG Export Plug-In . SVG Version: 6.00 Build 0)  -->
<svg version="1.1" id="Calque_1" xmlns="http://www.w3.org/2000/svg" xmlns:xlink="http://www.w3.org/1999/xlink" x="0px" y="0px"
	 viewBox="0 0 463.84 70.87" style="enable-background:new 0 0 463.84 70.87;" xml:space="preserve">
<style type="text/css">
	.st0{fill:#2E6575;}
	.st1{fill:#00AFA5;}
</style>
<g>
	<g>
		<g>
			<path class="st0" d="M79.98,45.7c-2.23-2.27-3.34-5.76-3.34-10.49c0-4.84,1.12-8.48,3.37-10.92c2.25-2.44,5.33-3.66,9.25-3.66
				c2.04,0,3.78,0.23,5.22,0.69c1.44,0.46,2.91,1.27,4.41,2.42V9.68h1.61v38.85h-1.33l-0.23-3.28c-1.35,1.34-2.83,2.33-4.47,2.94
				c-1.63,0.61-3.53,0.92-5.68,0.92C85.14,49.1,82.2,47.97,79.98,45.7z M94.47,46.68c1.59-0.65,3.06-1.69,4.41-3.11V25.42
				c-1.31-1.11-2.66-1.95-4.06-2.51c-1.4-0.56-3.08-0.83-5.04-0.83c-3.77,0-6.64,1.09-8.62,3.28c-1.98,2.19-2.97,5.47-2.97,9.85
				c0,4.15,0.93,7.26,2.8,9.34c1.86,2.07,4.56,3.11,8.1,3.11C91.08,47.66,92.88,47.34,94.47,46.68z"/>
			<path class="st0" d="M110.9,47.29c-1.75-1.21-2.62-3.1-2.62-5.68c0-2.5,0.76-4.43,2.28-5.79c1.52-1.36,4.02-2.05,7.52-2.05h10.89
				v-3.52c0-2.03-0.26-3.64-0.78-4.81c-0.52-1.17-1.44-2.03-2.77-2.56c-1.33-0.54-3.24-0.81-5.73-0.81c-2.92,0-5.71,0.48-8.36,1.44
				v-1.5c2.31-0.92,5.26-1.38,8.88-1.38c3.65,0,6.29,0.74,7.92,2.22c1.63,1.48,2.45,3.91,2.45,7.29v18.38h-1.27l-0.23-3.75
				c-1.35,1.5-2.92,2.59-4.73,3.28c-1.81,0.69-4.02,1.04-6.63,1.04C114.92,49.1,112.64,48.5,110.9,47.29z M124.35,46.57
				c1.73-0.73,3.27-1.9,4.61-3.52v-7.78h-10.78c-3.11,0-5.28,0.52-6.51,1.56c-1.23,1.04-1.84,2.63-1.84,4.78
				c0,4.03,2.77,6.05,8.3,6.05C120.55,47.66,122.62,47.3,124.35,46.57z"/>
			<path class="st0" d="M142.05,47.2c-1.23-1.27-1.84-3.02-1.84-5.24V22.71h-4.44v-1.5h4.44V13.6l1.61-0.58v8.18h8.24l-0.12,1.5
				h-8.13v19.25c0,1.88,0.47,3.3,1.41,4.26c0.94,0.96,2.41,1.44,4.41,1.44c0.92,0,2-0.21,3.23-0.63v1.5
				c-1.23,0.38-2.48,0.58-3.75,0.58C144.97,49.1,143.28,48.47,142.05,47.2z"/>
			<path class="st0" d="M157.23,47.29c-1.75-1.21-2.62-3.1-2.62-5.68c0-2.5,0.76-4.43,2.28-5.79c1.52-1.36,4.02-2.05,7.52-2.05
				h10.89v-3.52c0-2.03-0.26-3.64-0.78-4.81c-0.52-1.17-1.44-2.03-2.77-2.56c-1.33-0.54-3.24-0.81-5.73-0.81
				c-2.92,0-5.71,0.48-8.36,1.44v-1.5c2.31-0.92,5.26-1.38,8.88-1.38c3.65,0,6.29,0.74,7.92,2.22c1.63,1.48,2.45,3.91,2.45,7.29
				v18.38h-1.27l-0.23-3.75c-1.35,1.5-2.92,2.59-4.73,3.28c-1.81,0.69-4.02,1.04-6.63,1.04C161.26,49.1,158.98,48.5,157.23,47.29z
				 M170.69,46.57c1.73-0.73,3.27-1.9,4.61-3.52v-7.78h-10.78c-3.11,0-5.28,0.52-6.51,1.56c-1.23,1.04-1.84,2.63-1.84,4.78
				c0,4.03,2.77,6.05,8.3,6.05C166.89,47.66,168.96,47.3,170.69,46.57z"/>
			<path class="st0" d="M197.03,48.07v-1.5c2.46,0.73,5.01,1.09,7.67,1.09c2.92,0,5.02-0.45,6.31-1.35c1.29-0.9,1.93-2.39,1.93-4.47
				c0-1.31-0.24-2.31-0.72-3.03c-0.48-0.71-1.16-1.28-2.05-1.7c-0.88-0.42-2.32-0.98-4.32-1.67l-1.21-0.4
				c-0.19-0.08-0.62-0.21-1.27-0.4c-1.69-0.58-3-1.09-3.92-1.56c-0.92-0.46-1.69-1.13-2.31-2.02c-0.62-0.88-0.92-2.07-0.92-3.57
				c0-2.31,0.74-4.03,2.22-5.16c1.48-1.13,3.85-1.7,7.12-1.7c2.69,0,4.98,0.29,6.86,0.86V23c-2.19-0.61-4.4-0.92-6.63-0.92
				c-3,0-5.08,0.42-6.25,1.27c-1.17,0.85-1.76,2.21-1.76,4.09c0,1.23,0.23,2.19,0.69,2.88c0.46,0.69,1.17,1.26,2.13,1.7
				c0.96,0.44,2.46,0.99,4.49,1.64c2.38,0.77,4.2,1.44,5.45,2.02c1.25,0.58,2.22,1.35,2.91,2.31c0.69,0.96,1.04,2.25,1.04,3.86
				c0,2.57-0.83,4.43-2.48,5.56c-1.65,1.13-4.03,1.7-7.15,1.7C201.91,49.1,199.3,48.76,197.03,48.07z"/>
			<path class="st0" d="M222.56,9.68h1.61v15.1c1.54-1.34,3.22-2.37,5.04-3.08c1.82-0.71,3.99-1.07,6.48-1.07
				c3.3,0,5.71,0.77,7.23,2.31c1.52,1.54,2.28,3.98,2.28,7.32v18.27h-1.61V30.26c0-2.03-0.26-3.64-0.78-4.81
				c-0.52-1.17-1.41-2.03-2.68-2.56c-1.27-0.54-3.04-0.81-5.3-0.81c-2.07,0-4.01,0.4-5.79,1.21c-1.79,0.81-3.41,1.9-4.87,3.28v21.96
				h-1.61V9.68z"/>
			<path class="st0" d="M255.96,45.56c-1.98-2.36-2.97-5.93-2.97-10.69c0-4.73,1-8.28,3-10.66c2-2.38,5.15-3.57,9.45-3.57
				c4.3,0,7.45,1.19,9.45,3.57c2,2.38,3,5.94,3,10.66c0,4.76-0.99,8.33-2.97,10.69c-1.98,2.36-5.14,3.55-9.48,3.55
				C261.1,49.1,257.94,47.92,255.96,45.56z M273.83,44.55c1.67-2.08,2.51-5.3,2.51-9.68c0-4.38-0.85-7.61-2.54-9.68
				c-1.69-2.08-4.48-3.11-8.36-3.11c-3.88,0-6.67,1.04-8.36,3.11c-1.69,2.08-2.54,5.3-2.54,9.68c0,4.38,0.84,7.61,2.51,9.68
				c1.67,2.07,4.47,3.11,8.39,3.11C269.36,47.66,272.15,46.63,273.83,44.55z"/>
			<path class="st0" d="M285.96,21.21h1.33l0.23,3.29c1.34-1.34,2.83-2.33,4.47-2.94c1.63-0.61,3.53-0.92,5.68-0.92
				c3.96,0,6.97,1.13,9.05,3.4c2.07,2.27,3.11,5.82,3.11,10.66s-1.11,8.45-3.31,10.83c-2.21,2.38-5.27,3.57-9.19,3.57
				c-2.07,0-3.86-0.24-5.36-0.72c-1.5-0.48-2.96-1.28-4.38-2.39v14.99h-1.61V21.21z M305.44,44.49c1.88-2.11,2.82-5.38,2.82-9.8
				c0-4.3-0.86-7.48-2.56-9.54c-1.71-2.06-4.49-3.08-8.33-3.08c-2,0-3.79,0.33-5.39,0.98c-1.59,0.65-3.06,1.69-4.41,3.11v18.16
				c1.34,1.08,2.74,1.9,4.18,2.48c1.44,0.58,3.16,0.86,5.16,0.86C300.71,47.66,303.55,46.61,305.44,44.49z"/>
		</g>
		<g>
			<path class="st0" d="M54.34,50.45H15.89V35.67c0-2.56,2.07-4.63,4.63-4.63s4.63,2.07,4.63,4.63v5.52h19.94v-5.52
				c0-2.56,2.07-4.63,4.63-4.63c2.56,0,4.63,2.07,4.63,4.63V50.45z"/>
			<polygon class="st1" points="35.12,33.81 20.35,19.05 35.12,19.05 49.88,19.05 			"/>
		</g>
	</g>
</g>
</svg>
