<?xml version="1.0" encoding="utf-8"?>
<!-- Generator: Adobe Illustrator 26.0.3, SVG Export Plug-In . SVG Version: 6.00 Build 0)  -->
<svg version="1.1" id="Calque_1" xmlns="http://www.w3.org/2000/svg" xmlns:xlink="http://www.w3.org/1999/xlink" x="0px" y="0px"
	 viewBox="0 0 463.84 70.87" style="enable-background:new 0 0 463.84 70.87;" xml:space="preserve">
<style type="text/css">
	.st0{fill:#2E6575;}
	.st1{fill:#00AFA5;}
</style>
<g>
	<g>
		<path class="st0" d="M79.98,45.7c-2.23-2.27-3.34-5.76-3.34-10.49c0-4.84,1.12-8.48,3.37-10.92s5.33-3.66,9.25-3.66
			c2.04,0,3.78,0.23,5.22,0.69c1.44,0.46,2.91,1.27,4.41,2.42V9.68h1.61v38.85h-1.33l-0.23-3.28c-1.35,1.34-2.83,2.33-4.47,2.94
			c-1.63,0.61-3.53,0.92-5.68,0.92C85.14,49.1,82.2,47.97,79.98,45.7z M94.47,46.68c1.59-0.65,3.06-1.69,4.41-3.11V25.42
			c-1.31-1.11-2.66-1.95-4.06-2.51c-1.4-0.56-3.08-0.83-5.04-0.83c-3.77,0-6.64,1.09-8.62,3.28c-1.98,2.19-2.97,5.47-2.97,9.85
			c0,4.15,0.93,7.26,2.8,9.34c1.86,2.07,4.56,3.11,8.1,3.11C91.08,47.66,92.88,47.34,94.47,46.68z"/>
		<path class="st0" d="M110.9,47.29c-1.75-1.21-2.62-3.1-2.62-5.68c0-2.5,0.76-4.43,2.28-5.79c1.52-1.36,4.02-2.05,7.52-2.05h10.89
			v-3.52c0-2.03-0.26-3.64-0.78-4.81c-0.52-1.17-1.44-2.03-2.77-2.56c-1.33-0.54-3.24-0.81-5.73-0.81c-2.92,0-5.71,0.48-8.36,1.44
			v-1.5c2.31-0.92,5.26-1.38,8.88-1.38c3.65,0,6.29,0.74,7.92,2.22c1.63,1.48,2.45,3.91,2.45,7.29v18.39h-1.27l-0.23-3.75
			c-1.35,1.5-2.92,2.59-4.73,3.28c-1.81,0.69-4.02,1.04-6.63,1.04C114.92,49.1,112.64,48.5,110.9,47.29z M124.35,46.57
			c1.73-0.73,3.27-1.9,4.61-3.52v-7.78h-10.78c-3.11,0-5.28,0.52-6.51,1.56c-1.23,1.04-1.84,2.63-1.84,4.78
			c0,4.03,2.77,6.05,8.3,6.05C120.55,47.66,122.63,47.3,124.35,46.57z"/>
		<path class="st0" d="M142.05,47.2c-1.23-1.27-1.84-3.02-1.84-5.24V22.71h-4.44v-1.5h4.44V13.6l1.61-0.58v8.18h8.24l-0.12,1.5
			h-8.13v19.25c0,1.88,0.47,3.3,1.41,4.26c0.94,0.96,2.41,1.44,4.41,1.44c0.92,0,2-0.21,3.23-0.63v1.5
			c-1.23,0.38-2.48,0.58-3.75,0.58C144.97,49.1,143.28,48.47,142.05,47.2z"/>
		<path class="st0" d="M157.23,47.29c-1.75-1.21-2.62-3.1-2.62-5.68c0-2.5,0.76-4.43,2.28-5.79c1.52-1.36,4.02-2.05,7.52-2.05h10.89
			v-3.52c0-2.03-0.26-3.64-0.78-4.81c-0.52-1.17-1.44-2.03-2.77-2.56c-1.33-0.54-3.24-0.81-5.73-0.81c-2.92,0-5.71,0.48-8.36,1.44
			v-1.5c2.31-0.92,5.26-1.38,8.88-1.38c3.65,0,6.29,0.74,7.92,2.22c1.63,1.48,2.45,3.91,2.45,7.29v18.39h-1.27l-0.23-3.75
			c-1.35,1.5-2.92,2.59-4.73,3.28c-1.81,0.69-4.02,1.04-6.63,1.04C161.26,49.1,158.98,48.5,157.23,47.29z M170.69,46.57
			c1.73-0.73,3.27-1.9,4.61-3.52v-7.78h-10.78c-3.11,0-5.28,0.52-6.51,1.56c-1.23,1.04-1.84,2.63-1.84,4.78
			c0,4.03,2.77,6.05,8.3,6.05C166.89,47.66,168.96,47.3,170.69,46.57z"/>
		<path class="st0" d="M199.39,22.71h-4.32v-1.5h4.32v-5.24c0-2.34,0.64-4.13,1.93-5.36c1.29-1.23,3.14-1.84,5.56-1.84
			c1.38,0,2.69,0.19,3.92,0.58v1.5c-1.19-0.42-2.34-0.63-3.46-0.63c-2.27,0-3.89,0.45-4.87,1.35c-0.98,0.9-1.47,2.33-1.47,4.29v5.36
			h7.9l-0.12,1.5h-7.78v25.82h-1.61V22.71z"/>
		<path class="st0" d="M214.87,47.29c-1.75-1.21-2.62-3.1-2.62-5.68c0-2.5,0.76-4.43,2.28-5.79c1.52-1.36,4.02-2.05,7.52-2.05h10.89
			v-3.52c0-2.03-0.26-3.64-0.78-4.81c-0.52-1.17-1.44-2.03-2.77-2.56c-1.33-0.54-3.24-0.81-5.73-0.81c-2.92,0-5.71,0.48-8.36,1.44
			v-1.5c2.31-0.92,5.26-1.38,8.88-1.38c3.65,0,6.29,0.74,7.92,2.22c1.63,1.48,2.45,3.91,2.45,7.29v18.39h-1.27l-0.23-3.75
			c-1.35,1.5-2.92,2.59-4.73,3.28c-1.81,0.69-4.02,1.04-6.63,1.04C218.89,49.1,216.61,48.5,214.87,47.29z M228.32,46.57
			c1.73-0.73,3.27-1.9,4.61-3.52v-7.78h-10.78c-3.11,0-5.28,0.52-6.51,1.56c-1.23,1.04-1.84,2.63-1.84,4.78
			c0,4.03,2.77,6.05,8.3,6.05C224.52,47.66,226.6,47.3,228.32,46.57z"/>
		<path class="st0" d="M249.5,48.18c-1.63-0.61-3.12-1.59-4.47-2.94l-0.23,3.28h-1.33V9.68h1.61v14.06c1.5-1.08,3.06-1.86,4.7-2.36
			c1.63-0.5,3.47-0.75,5.5-0.75c3.92,0,6.91,1.12,8.96,3.37c2.06,2.25,3.08,5.79,3.08,10.63c0,4.88-1.05,8.51-3.14,10.89
			c-2.1,2.38-5.1,3.57-9.02,3.57C253.03,49.1,251.14,48.8,249.5,48.18z M263.19,44.41c1.73-2.17,2.59-5.43,2.59-9.77
			c0-4.38-0.89-7.57-2.68-9.57c-1.79-2-4.56-3-8.33-3c-3.69,0-6.92,1.11-9.68,3.34v18.15c1.34,1.42,2.81,2.46,4.41,3.11
			c1.59,0.66,3.39,0.98,5.39,0.98C258.7,47.66,261.46,46.58,263.19,44.41z"/>
		<path class="st0" d="M275.41,21.21h1.33l0.29,4.09c1.46-1.04,3.1-1.97,4.93-2.79c1.82-0.83,3.64-1.45,5.45-1.87v1.5
			c-1.73,0.42-3.6,1.09-5.62,2.02c-2.02,0.92-3.6,1.83-4.75,2.71v21.67h-1.61V21.21z"/>
		<path class="st0" d="M298.75,22.71h-4.44v-1.5h6.05v27.32h-1.61V22.71z M298.35,10.83h2.02v2.54h-2.02V10.83z"/>
		<path class="st0" d="M309.59,9.68h1.61v25.7l15.39-14.18h2.07l-11.3,10.49l11.99,16.83h-1.73l-11.35-15.85l-5.07,4.67v11.18h-1.61
			V9.68z"/>
	</g>
	<g>
		<path class="st0" d="M42.09,52.83c-9.93,0-18.01-8.08-18.01-18.01c0-2.24,1.82-4.05,4.05-4.05s4.05,1.82,4.05,4.05
			c0,5.46,4.44,9.9,9.9,9.9s9.9-4.44,9.9-9.9c0-2.24,1.82-4.05,4.05-4.05s4.05,1.82,4.05,4.05C60.1,44.75,52.02,52.83,42.09,52.83z"
			/>
		<path class="st1" d="M42.09,38.87c-2.24,0-4.05-1.82-4.05-4.05c0-5.46-4.44-9.9-9.9-9.9c-5.46,0-9.9,4.44-9.9,9.9
			c0,2.24-1.82,4.05-4.05,4.05s-4.05-1.82-4.05-4.05c0-9.93,8.08-18.01,18.01-18.01c9.93,0,18.01,8.08,18.01,18.01
			C46.14,37.05,44.33,38.87,42.09,38.87z"/>
	</g>
</g>
</svg>
