<?xml version="1.0" encoding="utf-8"?>
<!-- Generator: Adobe Illustrator 26.0.3, SVG Export Plug-In . SVG Version: 6.00 Build 0)  -->
<svg version="1.1" id="Calque_1" xmlns="http://www.w3.org/2000/svg" xmlns:xlink="http://www.w3.org/1999/xlink" x="0px" y="0px"
	 viewBox="0 0 463.84 70.87" style="enable-background:new 0 0 463.84 70.87;" xml:space="preserve">
<style type="text/css">
	.st0{fill:#2E6575;}
	.st1{fill:#00AFA5;}
</style>
<g>
	<g>
		<path class="st0" d="M79.8,45.68c-2.11-2.29-3.17-5.97-3.17-11.04c0-4.57,0.97-8.05,2.91-10.43c1.94-2.38,5.04-3.57,9.31-3.57
			c3.61,0,6.3,0.99,8.07,2.97c1.77,1.98,2.65,4.52,2.65,7.64v4.73H78.25c0.08,2.77,0.51,4.99,1.3,6.69
			c0.79,1.69,2.07,2.95,3.86,3.77c1.79,0.83,4.2,1.24,7.23,1.24c2.34,0,4.71-0.48,7.09-1.44v1.5c-2.34,0.92-4.8,1.38-7.38,1.38
			C85.43,49.1,81.92,47.96,79.8,45.68z M97.96,34.47v-3c0-2.96-0.74-5.26-2.22-6.92c-1.48-1.65-3.78-2.48-6.89-2.48
			c-3.8,0-6.52,1.06-8.15,3.17c-1.63,2.11-2.45,5.19-2.45,9.22H97.96z"/>
		<path class="st0" d="M106.49,33.6h21.15v1.44h-21.15V33.6z"/>
		<path class="st0" d="M139.68,47.2c-1.23-1.27-1.84-3.02-1.84-5.24V22.71h-4.44v-1.5h4.44V13.6l1.61-0.58v8.18h8.24l-0.12,1.5
			h-8.13v19.25c0,1.88,0.47,3.3,1.41,4.26c0.94,0.96,2.41,1.44,4.41,1.44c0.92,0,2-0.21,3.23-0.63v1.5
			c-1.23,0.38-2.48,0.58-3.75,0.58C142.6,49.1,140.91,48.47,139.68,47.2z"/>
		<path class="st0" d="M154.87,47.29c-1.75-1.21-2.62-3.1-2.62-5.68c0-2.5,0.76-4.43,2.28-5.79c1.52-1.36,4.02-2.05,7.52-2.05h10.89
			v-3.52c0-2.03-0.26-3.64-0.78-4.81c-0.52-1.17-1.44-2.03-2.77-2.56c-1.33-0.54-3.24-0.81-5.73-0.81c-2.92,0-5.71,0.48-8.36,1.44
			v-1.5c2.31-0.92,5.26-1.38,8.88-1.38c3.65,0,6.29,0.74,7.92,2.22c1.63,1.48,2.45,3.91,2.45,7.29v18.38h-1.27l-0.23-3.75
			c-1.35,1.5-2.92,2.59-4.73,3.28c-1.81,0.69-4.02,1.04-6.63,1.04C158.9,49.1,156.62,48.5,154.87,47.29z M168.33,46.57
			c1.73-0.73,3.27-1.9,4.61-3.52v-7.78h-10.78c-3.11,0-5.28,0.52-6.51,1.56c-1.23,1.04-1.84,2.63-1.84,4.78
			c0,4.03,2.77,6.05,8.3,6.05C164.52,47.66,166.6,47.3,168.33,46.57z"/>
		<path class="st0" d="M205.82,60.95c-0.83-1.02-1.24-2.6-1.24-4.76v-10.2c-1.42,1.11-2.88,1.91-4.38,2.39
			c-1.5,0.48-3.28,0.72-5.36,0.72c-3.92,0-6.98-1.19-9.19-3.57c-2.21-2.38-3.31-5.99-3.31-10.83s1.04-8.4,3.11-10.66
			c2.07-2.27,5.09-3.4,9.05-3.4c2.15,0,4.04,0.31,5.68,0.92c1.63,0.61,3.12,1.59,4.47,2.94l0.23-3.29h1.33v34.98
			c0,1.77,0.26,3.01,0.78,3.72c0.52,0.71,1.6,1.07,3.26,1.07c0.54,0,1.13-0.1,1.79-0.29v1.5c-0.77,0.19-1.52,0.29-2.25,0.29
			C207.96,62.48,206.64,61.97,205.82,60.95z M200.4,46.8c1.44-0.58,2.83-1.4,4.18-2.48V26.17c-1.35-1.42-2.81-2.46-4.41-3.11
			c-1.59-0.65-3.39-0.98-5.39-0.98c-3.84,0-6.62,1.03-8.33,3.08c-1.71,2.06-2.56,5.24-2.56,9.54c0,4.42,0.94,7.69,2.82,9.8
			c1.88,2.11,4.73,3.17,8.53,3.17C197.24,47.66,198.96,47.38,200.4,46.8z"/>
	</g>
	<g>
		<circle class="st1" cx="26.91" cy="52.15" r="7.43"/>
		<g>
			<path class="st0" d="M47.35,22.32c-4.11,0-7.44,3.33-7.44,7.43c0,3.17,2,5.86,4.8,6.93v7.01c0,3.06-2.49,5.55-5.55,5.55h-1.64
				c0.25,0.93,0.4,1.89,0.4,2.9c0,1-0.15,1.97-0.4,2.9h1.64c6.26,0,11.35-5.09,11.35-11.35v-7.23c2.52-1.19,4.28-3.74,4.28-6.71
				C54.78,25.65,51.45,22.32,47.35,22.32z"/>
			<path class="st0" d="M29.81,41.54v-20.2c2.67-1.13,4.54-3.77,4.54-6.85c0-4.11-3.33-7.44-7.44-7.44c-4.11,0-7.43,3.33-7.43,7.44
				c0,3.08,1.87,5.72,4.54,6.85v20.2c0.92-0.25,1.89-0.4,2.9-0.4C27.91,41.14,28.88,41.29,29.81,41.54z"/>
		</g>
	</g>
</g>
</svg>
