<?xml version="1.0" encoding="utf-8"?>
<!-- Generator: Adobe Illustrator 26.0.3, SVG Export Plug-In . SVG Version: 6.00 Build 0)  -->
<svg version="1.1" id="Calque_1" xmlns="http://www.w3.org/2000/svg" xmlns:xlink="http://www.w3.org/1999/xlink" x="0px" y="0px"
	 viewBox="0 0 60.63 60.63" style="enable-background:new 0 0 60.63 60.63;" xml:space="preserve">
<style type="text/css">
	.st0{fill-rule:evenodd;clip-rule:evenodd;fill:url(#SVGID_1_);}
	.st1{fill:#00AFA5;}
	.st2{fill:#2E6575;}
	.st3{fill:#FFFFFF;}
</style>
<linearGradient id="SVGID_1_" gradientUnits="userSpaceOnUse" x1="30.3165" y1="1.818989e-12" x2="30.3165" y2="60.633">
	<stop  offset="0" style="stop-color:#FFFFFF"/>
	<stop  offset="0.3531" style="stop-color:#FCFDFC"/>
	<stop  offset="0.6511" style="stop-color:#F1F6F5"/>
	<stop  offset="0.9281" style="stop-color:#E0EAE7"/>
	<stop  offset="1" style="stop-color:#DAE6E3"/>
</linearGradient>
<path class="st0" d="M43.38,60.63H17.26C7.73,60.63,0,52.91,0,43.38V17.26C0,7.73,7.73,0,17.26,0h26.12
	c9.53,0,17.26,7.73,17.26,17.26v26.12C60.63,52.91,52.91,60.63,43.38,60.63z"/>
<g>
	<path class="st1" d="M40.06,44.66H20.99c-3.56,0-6.45-2.89-6.45-6.45s2.89-6.45,6.45-6.45h19.08c3.56,0,6.45,2.89,6.45,6.45
		S43.62,44.66,40.06,44.66z"/>
	<path class="st2" d="M39.14,28.9H20.57c-3.56,0-6.45-2.89-6.45-6.45s2.89-6.45,6.45-6.45h18.57c3.56,0,6.45,2.89,6.45,6.45
		S42.7,28.9,39.14,28.9z"/>
	<g>
		<circle class="st3" cx="20.57" cy="22.46" r="4.66"/>
	</g>
	<g>
		<circle class="st3" cx="40.06" cy="38.38" r="4.66"/>
	</g>
</g>
</svg>
