<?xml version="1.0" encoding="utf-8"?>
<!-- Generator: Adobe Illustrator 26.0.3, SVG Export Plug-In . SVG Version: 6.00 Build 0)  -->
<svg version="1.1" id="Calque_1" xmlns="http://www.w3.org/2000/svg" xmlns:xlink="http://www.w3.org/1999/xlink" x="0px" y="0px"
	 viewBox="0 0 463.84 70.87" style="enable-background:new 0 0 463.84 70.87;" xml:space="preserve">
<style type="text/css">
	.st0{fill:#2E6575;}
	.st1{fill:#00AFA5;}
</style>
<g>
	<g>
		<path class="st0" d="M77.79,21.21h1.33l0.29,3.57c3.27-2.77,6.74-4.15,10.43-4.15c2.11,0,3.78,0.34,4.99,1.04
			c1.21,0.69,2.1,1.71,2.68,3.05c3.07-2.73,6.72-4.09,10.95-4.09c3.07,0,5.37,0.78,6.89,2.33c1.52,1.56,2.28,3.95,2.28,7.18v18.38
			H116V30.2c0-2.96-0.63-5.05-1.9-6.28c-1.27-1.23-3.32-1.84-6.17-1.84c-1.92,0-3.75,0.34-5.48,1.04c-1.73,0.69-3.19,1.69-4.38,3
			c0.31,1.23,0.46,2.69,0.46,4.38v18.04h-1.61V30.49c0-3.03-0.52-5.2-1.56-6.48c-1.04-1.29-2.92-1.93-5.65-1.93
			c-1.81,0-3.62,0.42-5.45,1.27c-1.83,0.85-3.45,1.92-4.87,3.23v21.96h-1.61V21.21z"/>
		<path class="st0" d="M126.2,48.07v-1.5c2.46,0.73,5.01,1.09,7.67,1.09c2.92,0,5.02-0.45,6.31-1.35c1.29-0.9,1.93-2.39,1.93-4.47
			c0-1.31-0.24-2.31-0.72-3.03c-0.48-0.71-1.16-1.28-2.05-1.7c-0.88-0.42-2.32-0.98-4.32-1.67l-1.21-0.4
			c-0.19-0.08-0.62-0.21-1.27-0.4c-1.69-0.58-3-1.09-3.92-1.56c-0.92-0.46-1.69-1.13-2.31-2.02c-0.62-0.88-0.92-2.07-0.92-3.57
			c0-2.31,0.74-4.03,2.22-5.16c1.48-1.13,3.85-1.7,7.12-1.7c2.69,0,4.98,0.29,6.86,0.86V23c-2.19-0.61-4.4-0.92-6.63-0.92
			c-3,0-5.08,0.42-6.25,1.27c-1.17,0.85-1.76,2.21-1.76,4.09c0,1.23,0.23,2.19,0.69,2.88c0.46,0.69,1.17,1.26,2.13,1.7
			c0.96,0.44,2.46,0.99,4.49,1.64c2.38,0.77,4.2,1.44,5.45,2.02c1.25,0.58,2.22,1.35,2.91,2.31c0.69,0.96,1.04,2.25,1.04,3.86
			c0,2.57-0.83,4.43-2.48,5.56c-1.65,1.13-4.03,1.7-7.15,1.7C131.08,49.1,128.46,48.76,126.2,48.07z"/>
		<path class="st0" d="M153.55,45.56c-1.98-2.36-2.97-5.93-2.97-10.69c0-4.73,1-8.28,3-10.66c2-2.38,5.15-3.57,9.45-3.57
			c4.3,0,7.45,1.19,9.45,3.57c2,2.38,3,5.94,3,10.66c0,4.76-0.99,8.33-2.97,10.69c-1.98,2.36-5.14,3.55-9.48,3.55
			C158.68,49.1,155.52,47.92,153.55,45.56z M171.41,44.55c1.67-2.08,2.51-5.3,2.51-9.68c0-4.38-0.85-7.61-2.54-9.68
			c-1.69-2.08-4.48-3.11-8.36-3.11c-3.88,0-6.67,1.04-8.36,3.11c-1.69,2.08-2.54,5.3-2.54,9.68c0,4.38,0.84,7.61,2.51,9.68
			c1.67,2.07,4.47,3.11,8.39,3.11C166.94,47.66,169.74,46.62,171.41,44.55z"/>
		<path class="st0" d="M195.07,21.21h1.33l0.29,3.57c3.27-2.77,6.74-4.15,10.43-4.15c2.11,0,3.78,0.34,4.99,1.04
			c1.21,0.69,2.1,1.71,2.68,3.05c3.07-2.73,6.72-4.09,10.95-4.09c3.07,0,5.37,0.78,6.89,2.33c1.52,1.56,2.28,3.95,2.28,7.18v18.38
			h-1.61V30.2c0-2.96-0.63-5.05-1.9-6.28c-1.27-1.23-3.32-1.84-6.17-1.84c-1.92,0-3.75,0.34-5.48,1.04c-1.73,0.69-3.19,1.69-4.38,3
			c0.31,1.23,0.46,2.69,0.46,4.38v18.04h-1.61V30.49c0-3.03-0.52-5.2-1.56-6.48c-1.04-1.29-2.92-1.93-5.65-1.93
			c-1.81,0-3.62,0.42-5.45,1.27c-1.83,0.85-3.45,1.92-4.87,3.23v21.96h-1.61V21.21z"/>
		<path class="st0" d="M244.43,47.29c-1.75-1.21-2.62-3.1-2.62-5.68c0-2.5,0.76-4.43,2.28-5.79c1.52-1.36,4.02-2.05,7.52-2.05h10.89
			v-3.52c0-2.03-0.26-3.64-0.78-4.81c-0.52-1.17-1.44-2.03-2.77-2.56c-1.33-0.54-3.24-0.81-5.73-0.81c-2.92,0-5.71,0.48-8.36,1.44
			v-1.5c2.31-0.92,5.26-1.38,8.88-1.38c3.65,0,6.29,0.74,7.92,2.22c1.63,1.48,2.45,3.91,2.45,7.29v18.38h-1.27l-0.23-3.75
			c-1.35,1.5-2.92,2.59-4.73,3.28c-1.81,0.69-4.02,1.04-6.63,1.04C248.46,49.1,246.18,48.5,244.43,47.29z M257.89,46.57
			c1.73-0.73,3.27-1.9,4.61-3.52v-7.78h-10.78c-3.11,0-5.28,0.52-6.51,1.56c-1.23,1.04-1.84,2.63-1.84,4.78
			c0,4.03,2.77,6.05,8.3,6.05C254.09,47.66,256.16,47.3,257.89,46.57z"/>
		<path class="st0" d="M273.05,21.21h1.33l0.29,3.57c1.54-1.34,3.22-2.37,5.04-3.08c1.82-0.71,3.99-1.07,6.48-1.07
			c3.3,0,5.71,0.77,7.23,2.31c1.52,1.54,2.28,3.98,2.28,7.32v18.27h-1.61V30.26c0-2.03-0.26-3.64-0.78-4.81
			c-0.52-1.17-1.41-2.03-2.68-2.56c-1.27-0.54-3.04-0.81-5.3-0.81c-2.07,0-4.01,0.4-5.79,1.21c-1.79,0.81-3.41,1.9-4.87,3.28v21.96
			h-1.61V21.21z"/>
		<path class="st0" d="M305.23,47.29c-1.75-1.21-2.62-3.1-2.62-5.68c0-2.5,0.76-4.43,2.28-5.79c1.52-1.36,4.02-2.05,7.52-2.05h10.89
			v-3.52c0-2.03-0.26-3.64-0.78-4.81c-0.52-1.17-1.44-2.03-2.77-2.56c-1.33-0.54-3.24-0.81-5.73-0.81c-2.92,0-5.71,0.48-8.36,1.44
			v-1.5c2.31-0.92,5.26-1.38,8.88-1.38c3.65,0,6.29,0.74,7.92,2.22c1.63,1.48,2.45,3.91,2.45,7.29v18.38h-1.27l-0.23-3.75
			c-1.35,1.5-2.92,2.59-4.73,3.28c-1.81,0.69-4.02,1.04-6.63,1.04C309.26,49.1,306.98,48.5,305.23,47.29z M318.69,46.57
			c1.73-0.73,3.27-1.9,4.61-3.52v-7.78h-10.78c-3.11,0-5.28,0.52-6.51,1.56c-1.23,1.04-1.84,2.63-1.84,4.78
			c0,4.03,2.77,6.05,8.3,6.05C314.89,47.66,316.96,47.3,318.69,46.57z"/>
		<path class="st0" d="M333.79,57.29v-1.5c2.88,0.96,6.3,1.44,10.26,1.44c3.5,0,6.05-0.32,7.67-0.95c1.61-0.63,2.42-1.91,2.42-3.83
			c0-1.61-0.46-2.73-1.38-3.34c-0.92-0.61-2.65-0.92-5.19-0.92h-7.61c-2.54,0-4.38-0.35-5.53-1.07c-1.15-0.71-1.73-1.83-1.73-3.37
			c0-1.15,0.46-2.17,1.38-3.05c0.92-0.88,2.21-1.5,3.86-1.84c-3.31-1.15-4.96-3.98-4.96-8.47c0-3.34,0.88-5.8,2.65-7.38
			c1.77-1.58,4.57-2.36,8.41-2.36c1.08,0,2.48,0.19,4.21,0.58h9.39l-0.12,1.5h-5.65c2.15,1.73,3.23,4.28,3.23,7.67
			c0,3.27-0.88,5.69-2.65,7.26c-1.77,1.58-4.57,2.36-8.41,2.36c-1.23,0-2.57-0.14-4.03-0.4c-1.77,0.23-3.17,0.69-4.21,1.38
			c-1.04,0.69-1.56,1.61-1.56,2.77c0,1.04,0.41,1.79,1.24,2.25c0.83,0.46,2.33,0.69,4.52,0.69h7.84c2.65,0,4.62,0.45,5.91,1.36
			c1.29,0.9,1.93,2.33,1.93,4.29c0,2.5-0.94,4.18-2.82,5.04c-1.88,0.86-4.82,1.3-8.82,1.3C339.71,58.67,336.29,58.21,333.79,57.29z
			 M349.7,37.75c1.38-0.54,2.37-1.4,2.97-2.59c0.59-1.19,0.89-2.78,0.89-4.78c0-2.92-0.74-5.03-2.22-6.34
			c-1.48-1.31-3.91-1.96-7.29-1.96c-3.42,0-5.86,0.63-7.32,1.9c-1.46,1.27-2.19,3.4-2.19,6.4c0,2.88,0.71,4.97,2.13,6.25
			c1.42,1.29,3.88,1.93,7.38,1.93C346.43,38.56,348.31,38.29,349.7,37.75z"/>
		<path class="st0" d="M365.14,45.67c-2.11-2.29-3.17-5.97-3.17-11.04c0-4.57,0.97-8.05,2.91-10.43c1.94-2.38,5.04-3.57,9.31-3.57
			c3.61,0,6.3,0.99,8.07,2.97c1.77,1.98,2.65,4.52,2.65,7.64v4.73h-21.32c0.08,2.77,0.51,4.99,1.3,6.69
			c0.79,1.69,2.08,2.95,3.86,3.77c1.79,0.83,4.2,1.24,7.23,1.24c2.34,0,4.71-0.48,7.09-1.44v1.5c-2.34,0.92-4.8,1.38-7.38,1.38
			C370.77,49.1,367.26,47.96,365.14,45.67z M383.3,34.46v-3c0-2.96-0.74-5.26-2.22-6.92c-1.48-1.65-3.77-2.48-6.89-2.48
			c-3.8,0-6.52,1.06-8.15,3.17c-1.63,2.11-2.45,5.19-2.45,9.22H383.3z"/>
		<path class="st0" d="M392.98,21.21h1.33l0.29,4.09c1.46-1.04,3.1-1.97,4.93-2.79c1.83-0.83,3.64-1.45,5.45-1.87v1.5
			c-1.73,0.42-3.6,1.09-5.62,2.02c-2.02,0.92-3.6,1.83-4.75,2.71v21.67h-1.61V21.21z"/>
	</g>
	<g>
		<g>
			<path class="st0" d="M51.89,11.66c-2.43-0.86-5.1,0.41-5.96,2.85l-7.33,20.71l5.52,12.42l10.63-30.02
				C55.6,15.19,54.32,12.52,51.89,11.66z"/>
		</g>
		<g>
			<path class="st1" d="M19.9,45.35c-0.54,0-1.08-0.09-1.61-0.29c-2.42-0.89-3.66-3.58-2.77-6l5.72-15.56
				c0.89-2.42,3.58-3.66,6-2.77c2.42,0.89,3.66,3.58,2.77,6l-5.72,15.56C23.59,44.18,21.81,45.35,19.9,45.35z"/>
			<g>
				<path class="st0" d="M41.86,50.16l-9.4-21.17l-4.63,12.6l5.49,12.36c0.77,1.74,2.48,2.78,4.27,2.78c0.63,0,1.28-0.13,1.89-0.4
					C41.84,55.28,42.9,52.52,41.86,50.16z"/>
			</g>
		</g>
	</g>
</g>
</svg>
