<?xml version="1.0" encoding="utf-8"?>
<!-- Generator: Adobe Illustrator 26.0.3, SVG Export Plug-In . SVG Version: 6.00 Build 0)  -->
<svg version="1.1" id="Calque_1" xmlns="http://www.w3.org/2000/svg" xmlns:xlink="http://www.w3.org/1999/xlink" x="0px" y="0px"
	 viewBox="0 0 463.84 70.87" style="enable-background:new 0 0 463.84 70.87;" xml:space="preserve">
<style type="text/css">
	.st0{fill:#2D6474;}
	.st1{fill-rule:evenodd;clip-rule:evenodd;fill:#2D6474;}
</style>
<g>
	<g>
		<path class="st0" d="M79.7,45.39c-1.97-2.35-2.95-5.9-2.95-10.64c0-4.7,0.99-8.24,2.98-10.61c1.99-2.37,5.12-3.56,9.41-3.56
			c4.28,0,7.42,1.19,9.41,3.56c1.99,2.37,2.98,5.91,2.98,10.61c0,4.74-0.98,8.29-2.95,10.64c-1.97,2.35-5.12,3.53-9.44,3.53
			C84.82,48.92,81.67,47.74,79.7,45.39z M97.48,44.39c1.66-2.07,2.5-5.28,2.5-9.64c0-4.36-0.84-7.57-2.52-9.64
			c-1.68-2.07-4.46-3.1-8.32-3.1c-3.86,0-6.64,1.03-8.32,3.1c-1.68,2.07-2.52,5.28-2.52,9.64c0,4.36,0.83,7.57,2.5,9.64
			c1.66,2.06,4.45,3.1,8.35,3.1C93.04,47.48,95.82,46.45,97.48,44.39z"/>
		<path class="st0" d="M109.56,21.15h1.32l0.29,4.07c1.45-1.03,3.09-1.96,4.9-2.78c1.82-0.82,3.62-1.44,5.42-1.86v1.49
			c-1.72,0.42-3.59,1.09-5.59,2.01c-2.01,0.92-3.59,1.82-4.73,2.7v21.57h-1.61V21.15z"/>
		<path class="st0" d="M128.37,9.68h1.61v25.58l15.32-14.11h2.07l-11.24,10.44l11.93,16.75h-1.72l-11.3-15.78l-5.05,4.65v11.13
			h-1.61V9.68z"/>
		<path class="st0" d="M154.64,45.5c-2.1-2.27-3.15-5.94-3.15-10.98c0-4.55,0.97-8.01,2.9-10.38c1.93-2.37,5.02-3.56,9.26-3.56
			c3.59,0,6.27,0.99,8.03,2.95c1.76,1.97,2.64,4.5,2.64,7.6v4.7H153.1c0.08,2.75,0.51,4.97,1.29,6.65c0.78,1.68,2.07,2.94,3.84,3.76
			c1.78,0.82,4.18,1.23,7.2,1.23c2.33,0,4.68-0.48,7.06-1.43v1.49c-2.33,0.92-4.78,1.38-7.34,1.38
			C160.25,48.92,156.75,47.78,154.64,45.5z M172.71,34.35v-2.98c0-2.94-0.74-5.24-2.21-6.88c-1.47-1.64-3.76-2.47-6.85-2.47
			c-3.79,0-6.49,1.05-8.12,3.16c-1.63,2.1-2.44,5.16-2.44,9.18H172.71z"/>
		<path class="st0" d="M182.01,47.89v-1.49c2.45,0.73,4.99,1.09,7.63,1.09c2.91,0,5-0.45,6.28-1.35c1.28-0.9,1.92-2.38,1.92-4.45
			c0-1.3-0.24-2.3-0.72-3.01c-0.48-0.71-1.16-1.27-2.04-1.69c-0.88-0.42-2.31-0.97-4.3-1.66l-1.2-0.4c-0.19-0.08-0.61-0.21-1.26-0.4
			c-1.68-0.57-2.98-1.09-3.9-1.55c-0.92-0.46-1.68-1.13-2.29-2.01c-0.61-0.88-0.92-2.07-0.92-3.56c0-2.29,0.74-4.01,2.21-5.13
			c1.47-1.13,3.83-1.69,7.08-1.69c2.68,0,4.95,0.29,6.83,0.86v1.49c-2.18-0.61-4.38-0.92-6.6-0.92c-2.98,0-5.06,0.42-6.22,1.26
			c-1.17,0.84-1.75,2.2-1.75,4.07c0,1.22,0.23,2.18,0.69,2.87c0.46,0.69,1.17,1.25,2.12,1.69c0.96,0.44,2.45,0.99,4.47,1.64
			c2.37,0.77,4.18,1.43,5.42,2.01c1.24,0.57,2.21,1.34,2.9,2.29c0.69,0.96,1.03,2.24,1.03,3.84c0,2.56-0.82,4.41-2.47,5.54
			c-1.64,1.13-4.02,1.69-7.11,1.69C186.86,48.92,184.26,48.57,182.01,47.89z"/>
		<path class="st0" d="M211.38,47.03c-1.22-1.26-1.84-3-1.84-5.22V22.65h-4.42v-1.49h4.42v-7.57l1.61-0.57v8.15h8.2l-0.11,1.49
			h-8.09V41.8c0,1.87,0.47,3.29,1.41,4.24c0.94,0.96,2.4,1.43,4.39,1.43c0.92,0,1.99-0.21,3.21-0.63v1.49
			c-1.22,0.38-2.47,0.57-3.73,0.57C214.28,48.92,212.6,48.29,211.38,47.03z"/>
		<path class="st0" d="M227.04,21.15h1.32l0.29,4.07c1.45-1.03,3.09-1.96,4.9-2.78c1.82-0.82,3.62-1.44,5.42-1.86v1.49
			c-1.72,0.42-3.59,1.09-5.59,2.01c-2.01,0.92-3.59,1.82-4.73,2.7v21.57h-1.61V21.15z"/>
		<path class="st0" d="M243.87,47.11c-1.74-1.2-2.61-3.09-2.61-5.65c0-2.49,0.75-4.41,2.27-5.77c1.51-1.36,4.01-2.04,7.49-2.04
			h10.84v-3.5c0-2.03-0.26-3.62-0.77-4.79c-0.52-1.17-1.43-2.02-2.75-2.55c-1.32-0.54-3.22-0.8-5.71-0.8
			c-2.91,0-5.68,0.48-8.32,1.43v-1.49c2.29-0.92,5.24-1.38,8.83-1.38c3.63,0,6.26,0.74,7.89,2.21c1.62,1.47,2.44,3.89,2.44,7.26
			v18.3h-1.26l-0.23-3.73c-1.34,1.49-2.91,2.58-4.7,3.27c-1.8,0.69-4,1.03-6.6,1.03C247.88,48.92,245.61,48.32,243.87,47.11z
			 M257.26,46.39c1.72-0.73,3.25-1.89,4.59-3.5v-7.74h-10.73c-3.1,0-5.26,0.52-6.48,1.55c-1.22,1.03-1.84,2.62-1.84,4.76
			c0,4.02,2.75,6.02,8.26,6.02C253.48,47.48,255.54,47.12,257.26,46.39z"/>
	</g>
	<path class="st1" d="M24.65,49.1L24.65,49.1c-1.44,0-2.61-1.17-2.61-2.61V23.03c0-1.44,1.17-2.61,2.61-2.61h0
		c1.44,0,2.61,1.17,2.61,2.61v23.47C27.26,47.94,26.09,49.1,24.65,49.1z"/>
	<path class="st1" d="M54.63,49.1L54.63,49.1c-1.44,0-2.61-1.17-2.61-2.61V23.03c0-1.44,1.17-2.61,2.61-2.61h0
		c1.44,0,2.61,1.17,2.61,2.61v23.47C57.24,47.94,56.08,49.1,54.63,49.1z"/>
	<path class="st1" d="M31.37,48.87L31.37,48.87c-0.56,0-1.02-0.45-1.02-1.02V21.67c0-0.56,0.45-1.02,1.02-1.02h0
		c0.56,0,1.02,0.45,1.02,1.02v26.18C32.38,48.41,31.93,48.87,31.37,48.87z"/>
	<path class="st1" d="M47.92,48.87L47.92,48.87c-0.56,0-1.02-0.45-1.02-1.02V21.67c0-0.56,0.45-1.02,1.02-1.02h0
		c0.56,0,1.02,0.45,1.02,1.02v26.18C48.93,48.41,48.48,48.87,47.92,48.87z"/>
	<path class="st1" d="M61.35,48.87L61.35,48.87c-0.56,0-1.02-0.45-1.02-1.02V21.67c0-0.56,0.45-1.02,1.02-1.02l0,0
		c0.56,0,1.02,0.45,1.02,1.02v26.18C62.37,48.41,61.91,48.87,61.35,48.87z"/>
	<path class="st1" d="M41.2,49.1h-3.12c-1.44,0-2.61-1.17-2.61-2.61V23.03c0-1.44,1.17-2.61,2.61-2.61h3.12
		c1.44,0,2.61,1.17,2.61,2.61v23.47C43.81,47.94,42.64,49.1,41.2,49.1z"/>
</g>
</svg>
