<?xml version="1.0" encoding="UTF-8"?><svg id="Calque_1" xmlns="http://www.w3.org/2000/svg" viewBox="0 0 300.76 45.95"><defs><style>.cls-1{fill:#00b0a3;}.cls-2{fill:#2e6575;}</style></defs><path class="cls-1" d="M35.6,24.13c-.73-.32-1.17-.94-1.18-1.66-.01-.7,.38-1.29,1.07-1.63,1.11-.54,1.53-1.62,1.06-2.75-.32-.79-.66-1.57-1.02-2.34-.51-1.1-1.55-1.54-2.78-1.19-.86,.25-1.62,.14-2.07-.28-.43-.41-.57-1.12-.38-1.96,.38-1.67-.59-2.44-1.21-2.75-.73-.37-1.54-.68-2.41-.92-1.22-.34-2.26,.16-2.84,1.36-.28,.59-.78,.96-1.36,1.02-.61,.05-1.2-.23-1.61-.79-1.24-1.68-1.84-1.85-3.78-1.08-.29,.11-.57,.25-.85,.39-.14,.07-.28,.14-.43,.21-1.35,.62-1.84,1.76-1.37,3.21,.21,.65,.11,1.24-.26,1.67-.4,.46-1.03,.65-1.75,.53-1.94-.33-2.7,.11-3.41,1.94l-.05,.13c-.13,.33-.26,.66-.37,.99-.58,1.63-.23,2.56,1.3,3.42,.54,.3,.88,.83,.91,1.44,.04,.61-.23,1.16-.73,1.52-1.75,1.26-1.92,1.88-1.08,3.88,.03,.06,.06,.13,.09,.19l3.38-3.06c.55-.77,.84-1.7,.79-2.68-.08-1.44-.89-2.72-2.16-3.43-.13-.07-.22-.13-.29-.17,.02-.07,.05-.16,.1-.29,.11-.31,.23-.62,.35-.92l.05-.14c.09-.24,.16-.39,.21-.48,.1,0,.26,.03,.52,.07,1.55,.27,3.05-.24,4-1.33,.93-1.07,1.2-2.57,.74-4.01-.03-.08-.04-.15-.05-.19,.03-.02,.06-.03,.11-.06,.17-.08,.33-.16,.49-.24,.22-.11,.44-.22,.67-.31,.19-.07,.4-.16,.56-.22,.1,.13,.24,.31,.36,.48,.92,1.25,2.34,1.9,3.8,1.77,1.43-.13,2.68-1.03,3.33-2.39,0-.02,.02-.04,.03-.05,.65,.18,1.26,.41,1.85,.71,0,.02,0,.04-.01,.06-.38,1.7,.01,3.26,1.09,4.28,1.08,1.03,2.68,1.34,4.37,.87,.28,.61,.54,1.22,.8,1.85-1.4,.78-2.25,2.2-2.21,3.76,.03,1.6,.97,3.02,2.46,3.76,0,.05-.01,.1-.02,.16-.01,.08-.08,.25-.15,.39-.05,.12-.11,.25-.15,.37-.01,.03-.02,.06-.03,.09-.03,.08-.06,.17-.08,.25-.05,.15-.1,.3-.14,.37-.06,.11-.11,.17-.14,.21-.03,0-.07,0-.12-.02-1.69-.37-3.24,.04-4.25,1.14-1.02,1.1-1.32,2.67-.82,4.33-.37,.16-.73,.32-1.1,.48-.26,.11-.52,.22-.8,.34-.87-1.43-2.06-2.18-3.52-2.22-1.02-.03-1.9,.24-2.61,.76l-.74,.71c-.21,.27-.4,.57-.55,.9-.01,.03-.03,.06-.04,.08-.06,0-.14-.03-.27-.06-.03,0-.05-.02-.08-.03l-1.95,1.86c.07,.03,.12,.05,.19,.08l.3,.12c.27,.11,.58,.24,.93,.33,.34,.09,.65,.13,.95,.13,1.01,0,1.75-.51,2.2-1.52,.29-.64,.81-.91,1.6-.92,.48,.01,1,.17,1.57,1.17,.62,1.08,1.64,1.45,2.72,.97,.35-.15,.7-.31,1.06-.46,.42-.18,.84-.36,1.25-.54,1.16-.52,1.62-1.59,1.24-2.87-.25-.82-.15-1.54,.27-1.99,.41-.44,1.11-.59,1.93-.41,1.83,.41,2.58-.84,2.87-1.3,.19-.31,.29-.62,.38-.88,.03-.08,.05-.16,.08-.24,0-.02,.02-.05,.02-.07,.03-.06,.05-.12,.08-.19,.12-.27,.27-.61,.33-1,.21-1.33-.21-2.24-1.22-2.68Z"/><g><path class="cls-2" d="M51.71,29.47c-1.35-1.58-2.02-3.87-2.02-6.86s.77-5.34,2.32-6.89c1.54-1.56,3.71-2.34,6.5-2.34,1.02,0,1.86,.07,2.52,.21,.66,.14,1.31,.37,1.96,.69v.97c-.72-.32-1.43-.56-2.11-.71-.69-.15-1.44-.22-2.26-.22-2.57,0-4.53,.69-5.89,2.07-1.36,1.38-2.04,3.46-2.04,6.22s.6,4.96,1.79,6.3,3.16,2,5.9,2c1.57,0,3.1-.31,4.6-.93v.97c-1.4,.6-3.01,.9-4.86,.9-2.94,0-5.08-.79-6.43-2.37Z"/><path class="cls-2" d="M68.09,29.54c-1.28-1.53-1.92-3.84-1.92-6.93s.65-5.37,1.94-6.91c1.29-1.54,3.34-2.32,6.13-2.32s4.83,.77,6.13,2.32c1.29,1.54,1.94,3.85,1.94,6.91s-.64,5.4-1.92,6.93c-1.28,1.53-3.33,2.3-6.15,2.3s-4.86-.77-6.15-2.3Zm11.58-.65c1.08-1.35,1.63-3.44,1.63-6.28s-.55-4.93-1.64-6.28c-1.1-1.35-2.9-2.02-5.42-2.02s-4.32,.67-5.42,2.02c-1.1,1.35-1.64,3.44-1.64,6.28s.54,4.93,1.63,6.28c1.08,1.34,2.9,2.02,5.44,2.02s4.35-.67,5.44-2.02Z"/><path class="cls-2" d="M87.55,13.75h.86l.19,2.32c1-.87,2.09-1.54,3.27-2,1.18-.46,2.58-.69,4.2-.69,2.14,0,3.71,.5,4.69,1.5,.98,1,1.48,2.58,1.48,4.75v11.85h-1.05v-11.85c0-1.32-.17-2.36-.5-3.12-.34-.76-.92-1.31-1.74-1.66-.82-.35-1.97-.52-3.44-.52-1.35,0-2.6,.26-3.76,.78-1.16,.52-2.21,1.23-3.16,2.13v14.24h-1.05V13.75Z"/><path class="cls-2" d="M109.33,14.72h-2.8v-.97h2.8v-3.14c0-1.67,.51-2.97,1.53-3.91,1.02-.93,2.38-1.4,4.07-1.4,1.59,0,2.82,.2,3.66,.6v.97c-.35-.2-.83-.35-1.46-.47-.62-.11-1.26-.17-1.91-.17-1.64,0-2.87,.35-3.66,1.06-.8,.71-1.2,1.79-1.2,3.23v3.21h9.42V31.46h-1.05V14.72h-8.37V31.46h-1.05V14.72Z"/><path class="cls-2" d="M125.74,37.15v-.97c1.87,.62,4.09,.93,6.65,.93,2.27,0,3.92-.21,4.97-.62s1.57-1.24,1.57-2.49c0-1.05-.3-1.77-.9-2.17-.6-.4-1.72-.6-3.36-.6h-4.93c-1.64,0-2.84-.23-3.59-.69-.75-.46-1.12-1.19-1.12-2.19,0-.75,.3-1.41,.9-1.98,.6-.57,1.43-.97,2.5-1.2-2.14-.75-3.21-2.58-3.21-5.49,0-2.17,.57-3.76,1.72-4.78,1.15-1.02,2.96-1.53,5.46-1.53,.7,0,1.61,.12,2.73,.37h6.09l-.07,.97h-3.66c1.4,1.12,2.09,2.78,2.09,4.97s-.57,3.69-1.72,4.71c-1.15,1.02-2.96,1.53-5.46,1.53-.8,0-1.67-.09-2.62-.26-1.15,.15-2.06,.45-2.73,.9-.67,.45-1.01,1.05-1.01,1.79,0,.67,.27,1.16,.8,1.46,.54,.3,1.51,.45,2.93,.45h5.08c1.72,0,3,.29,3.83,.88,.83,.58,1.25,1.51,1.25,2.78,0,1.62-.61,2.71-1.83,3.27-1.22,.56-3.13,.84-5.72,.84-2.82,0-5.03-.3-6.65-.9Zm10.31-12.67c.9-.35,1.54-.91,1.92-1.68,.39-.77,.58-1.81,.58-3.1,0-1.89-.48-3.26-1.44-4.11-.96-.85-2.54-1.27-4.73-1.27s-3.8,.41-4.75,1.23-1.42,2.21-1.42,4.15,.46,3.22,1.38,4.05c.92,.83,2.52,1.25,4.78,1.25,1.54,0,2.77-.17,3.66-.52Z"/><path class="cls-2" d="M145.32,30.05c-1.12-1.2-1.68-2.89-1.68-5.08V13.75h1.05v11.21c0,1.97,.49,3.45,1.46,4.45,.97,1,2.5,1.5,4.6,1.5,2.47,0,4.65-.97,6.54-2.92V13.75h1.05V31.46h-.86l-.19-2.32c-1.02,.92-2.06,1.6-3.12,2.04-1.06,.44-2.39,.65-3.98,.65-2.12,0-3.74-.6-4.86-1.79Z"/><path class="cls-2" d="M164.3,13.75h.86l.19,2.65c.95-.67,2.01-1.28,3.19-1.81,1.18-.54,2.36-.94,3.53-1.21v.97c-1.12,.27-2.34,.71-3.64,1.31-1.31,.6-2.34,1.18-3.08,1.76v14.05h-1.05V13.75Z"/><path class="cls-2" d="M175.27,30.66c-1.13-.78-1.7-2.01-1.7-3.68s.49-2.87,1.48-3.76c.98-.88,2.61-1.33,4.88-1.33h7.06v-2.28c0-1.32-.17-2.36-.5-3.12-.34-.76-.93-1.31-1.79-1.66-.86-.35-2.1-.52-3.72-.52-1.89,0-3.7,.31-5.42,.93v-.97c1.5-.6,3.41-.9,5.76-.9s4.08,.48,5.14,1.44c1.06,.96,1.59,2.54,1.59,4.73v11.92h-.82l-.15-2.43c-.87,.97-1.89,1.68-3.06,2.13-1.17,.45-2.6,.67-4.3,.67-1.82,0-3.3-.39-4.43-1.18Zm8.73-.47c1.12-.47,2.12-1.23,2.99-2.28v-5.04h-6.99c-2.02,0-3.43,.34-4.22,1.01-.8,.67-1.2,1.71-1.2,3.1,0,2.62,1.79,3.92,5.38,3.92,1.57,0,2.92-.24,4.04-.71Z"/><path class="cls-2" d="M195.47,30.61c-.8-.82-1.2-1.96-1.2-3.4V14.72h-2.88v-.97h2.88v-4.93l1.05-.37v5.31h5.34l-.07,.97h-5.27v12.48c0,1.22,.31,2.14,.92,2.76,.61,.62,1.56,.93,2.86,.93,.6,0,1.3-.14,2.09-.41v.97c-.8,.25-1.61,.37-2.43,.37-1.4,0-2.49-.41-3.29-1.23Z"/><path class="cls-2" d="M208.55,14.72h-2.88v-.97h3.92V31.46h-1.05V14.72Zm-.26-7.7h1.31v1.64h-1.31v-1.64Z"/><path class="cls-2" d="M216.75,29.54c-1.28-1.53-1.92-3.84-1.92-6.93s.65-5.37,1.94-6.91c1.29-1.54,3.34-2.32,6.13-2.32s4.83,.77,6.13,2.32c1.29,1.54,1.94,3.85,1.94,6.91s-.64,5.4-1.92,6.93c-1.28,1.53-3.33,2.3-6.15,2.3s-4.86-.77-6.15-2.3Zm11.58-.65c1.08-1.35,1.63-3.44,1.63-6.28s-.55-4.93-1.64-6.28c-1.1-1.35-2.9-2.02-5.42-2.02s-4.32,.67-5.42,2.02c-1.1,1.35-1.64,3.44-1.64,6.28s.54,4.93,1.63,6.28c1.08,1.34,2.9,2.02,5.44,2.02s4.35-.67,5.44-2.02Z"/><path class="cls-2" d="M236.2,13.75h.86l.19,2.32c1-.87,2.09-1.54,3.27-2s2.58-.69,4.2-.69c2.14,0,3.71,.5,4.69,1.5,.98,1,1.48,2.58,1.48,4.75v11.85h-1.05v-11.85c0-1.32-.17-2.36-.5-3.12-.34-.76-.92-1.31-1.74-1.66-.82-.35-1.97-.52-3.44-.52-1.34,0-2.6,.26-3.75,.78-1.16,.52-2.21,1.23-3.16,2.13v14.24h-1.05V13.75Z"/></g><path class="cls-2" d="M26.34,23.48c-.78,.78-2.04,.78-2.81,0l-1.41-1.41c-.78-.78-.78-2.04,0-2.81l2.36-2.36c-2.27-.73-4.85-.2-6.66,1.6-1.66,1.66-2.24,3.99-1.75,6.12l-7.15,7.15c-1.36,1.36-1.36,3.55,0,4.91,1.36,1.36,3.55,1.36,4.91,0l7.15-7.15c2.13,.49,4.46-.09,6.12-1.75,1.8-1.8,2.33-4.39,1.6-6.66l-2.36,2.36Z"/></svg>