<?xml version="1.0" encoding="utf-8"?>
<!-- Generator: Adobe Illustrator 27.8.1, SVG Export Plug-In . SVG Version: 6.00 Build 0)  -->
<svg version="1.1" id="Calque_1" xmlns="http://www.w3.org/2000/svg" xmlns:xlink="http://www.w3.org/1999/xlink" x="0px" y="0px"
	 viewBox="0 0 301.8 47.4" style="enable-background:new 0 0 301.8 47.4;" xml:space="preserve">
<style type="text/css">
	.st0{fill:#2E6575;}
	.st1{fill:#00B0A3;}
</style>
<g>
	<g>
		<path class="st0" d="M50.9,14.3h0.9l0.2,2.7c0.9-0.7,2-1.3,3.2-1.8c1.2-0.5,2.4-0.9,3.5-1.2v1c-1.1,0.3-2.3,0.7-3.6,1.3
			c-1.3,0.6-2.3,1.2-3.1,1.8V32h-1V14.3z"/>
		<path class="st0" d="M63.4,30.1c-1.4-1.5-2.1-3.9-2.1-7.2c0-3,0.6-5.2,1.9-6.8c1.3-1.5,3.3-2.3,6-2.3c2.3,0,4.1,0.6,5.2,1.9
			c1.1,1.3,1.7,2.9,1.7,5v3.1H62.4c0,1.8,0.3,3.2,0.8,4.3c0.5,1.1,1.3,1.9,2.5,2.4c1.2,0.5,2.7,0.8,4.7,0.8c1.5,0,3.1-0.3,4.6-0.9v1
			c-1.5,0.6-3.1,0.9-4.8,0.9C67,32.3,64.8,31.6,63.4,30.1z M75.2,22.8v-1.9c0-1.9-0.5-3.4-1.4-4.5c-1-1.1-2.4-1.6-4.5-1.6
			c-2.5,0-4.2,0.7-5.3,2.1c-1.1,1.4-1.6,3.4-1.6,6H75.2z"/>
		<path class="st0" d="M82.7,15.2h-2.8v-1h2.8v-3.4c0-1.5,0.4-2.7,1.3-3.5c0.8-0.8,2-1.2,3.6-1.2c0.9,0,1.7,0.1,2.5,0.4v1
			c-0.8-0.3-1.5-0.4-2.2-0.4c-1.5,0-2.5,0.3-3.2,0.9c-0.6,0.6-1,1.5-1,2.8v3.5h5.1l-0.1,1h-5V32h-1V15.2z"/>
		<path class="st0" d="M108.8,14.3h0.9l0.2,2.3c2.1-1.8,4.4-2.7,6.8-2.7c1.4,0,2.4,0.2,3.2,0.7c0.8,0.4,1.4,1.1,1.7,2
			c2-1.8,4.4-2.7,7.1-2.7c2,0,3.5,0.5,4.5,1.5c1,1,1.5,2.6,1.5,4.7V32h-1V20.1c0-1.9-0.4-3.3-1.2-4.1c-0.8-0.8-2.2-1.2-4-1.2
			c-1.2,0-2.4,0.2-3.6,0.7c-1.1,0.4-2.1,1.1-2.8,1.9c0.2,0.8,0.3,1.7,0.3,2.8V32h-1V20.3c0-2-0.3-3.4-1-4.2
			c-0.7-0.8-1.9-1.3-3.7-1.3c-1.2,0-2.3,0.3-3.5,0.8c-1.2,0.5-2.2,1.2-3.2,2.1V32h-1V14.3z"/>
		<path class="st0" d="M140.8,31.2c-1.1-0.8-1.7-2-1.7-3.7c0-1.6,0.5-2.9,1.5-3.8c1-0.9,2.6-1.3,4.9-1.3h7.1v-2.3
			c0-1.3-0.2-2.4-0.5-3.1c-0.3-0.8-0.9-1.3-1.8-1.7c-0.9-0.3-2.1-0.5-3.7-0.5c-1.9,0-3.7,0.3-5.4,0.9v-1c1.5-0.6,3.4-0.9,5.8-0.9
			c2.4,0,4.1,0.5,5.1,1.4s1.6,2.5,1.6,4.7V32h-0.8l-0.1-2.4c-0.9,1-1.9,1.7-3.1,2.1c-1.2,0.4-2.6,0.7-4.3,0.7
			C143.4,32.3,142,31.9,140.8,31.2z M149.6,30.7c1.1-0.5,2.1-1.2,3-2.3v-5h-7c-2,0-3.4,0.3-4.2,1c-0.8,0.7-1.2,1.7-1.2,3.1
			c0,2.6,1.8,3.9,5.4,3.9C147.1,31.4,148.4,31.2,149.6,30.7z"/>
		<path class="st0" d="M159.4,14.3h0.9l0.2,2.3c1-0.9,2.1-1.5,3.3-2s2.6-0.7,4.2-0.7c2.1,0,3.7,0.5,4.7,1.5c1,1,1.5,2.6,1.5,4.7V32
			h-1V20.1c0-1.3-0.2-2.4-0.5-3.1c-0.3-0.8-0.9-1.3-1.7-1.7c-0.8-0.3-2-0.5-3.4-0.5c-1.3,0-2.6,0.3-3.8,0.8
			c-1.2,0.5-2.2,1.2-3.2,2.1V32h-1V14.3z"/>
		<path class="st0" d="M180.3,31.2c-1.1-0.8-1.7-2-1.7-3.7c0-1.6,0.5-2.9,1.5-3.8c1-0.9,2.6-1.3,4.9-1.3h7.1v-2.3
			c0-1.3-0.2-2.4-0.5-3.1c-0.3-0.8-0.9-1.3-1.8-1.7c-0.9-0.3-2.1-0.5-3.7-0.5c-1.9,0-3.7,0.3-5.4,0.9v-1c1.5-0.6,3.4-0.9,5.8-0.9
			c2.4,0,4.1,0.5,5.1,1.4s1.6,2.5,1.6,4.7V32h-0.8l-0.1-2.4c-0.9,1-1.9,1.7-3.1,2.1c-1.2,0.4-2.6,0.7-4.3,0.7
			C182.9,32.3,181.4,31.9,180.3,31.2z M189,30.7c1.1-0.5,2.1-1.2,3-2.3v-5h-7c-2,0-3.4,0.3-4.2,1c-0.8,0.7-1.2,1.7-1.2,3.1
			c0,2.6,1.8,3.9,5.4,3.9C186.5,31.4,187.9,31.2,189,30.7z"/>
		<path class="st0" d="M198.8,37.6v-1c1.9,0.6,4.1,0.9,6.7,0.9c2.3,0,3.9-0.2,5-0.6c1-0.4,1.6-1.2,1.6-2.5c0-1-0.3-1.8-0.9-2.2
			c-0.6-0.4-1.7-0.6-3.4-0.6h-4.9c-1.6,0-2.8-0.2-3.6-0.7c-0.7-0.5-1.1-1.2-1.1-2.2c0-0.7,0.3-1.4,0.9-2c0.6-0.6,1.4-1,2.5-1.2
			c-2.1-0.7-3.2-2.6-3.2-5.5c0-2.2,0.6-3.8,1.7-4.8s3-1.5,5.5-1.5c0.7,0,1.6,0.1,2.7,0.4h6.1l-0.1,1h-3.7c1.4,1.1,2.1,2.8,2.1,5
			c0,2.1-0.6,3.7-1.7,4.7s-3,1.5-5.5,1.5c-0.8,0-1.7-0.1-2.6-0.3c-1.1,0.1-2.1,0.4-2.7,0.9c-0.7,0.4-1,1-1,1.8
			c0,0.7,0.3,1.2,0.8,1.5c0.5,0.3,1.5,0.4,2.9,0.4h5.1c1.7,0,3,0.3,3.8,0.9c0.8,0.6,1.3,1.5,1.3,2.8c0,1.6-0.6,2.7-1.8,3.3
			s-3.1,0.8-5.7,0.8C202.6,38.5,200.4,38.2,198.8,37.6z M209.1,25c0.9-0.3,1.5-0.9,1.9-1.7c0.4-0.8,0.6-1.8,0.6-3.1
			c0-1.9-0.5-3.3-1.4-4.1s-2.5-1.3-4.7-1.3c-2.2,0-3.8,0.4-4.7,1.2c-0.9,0.8-1.4,2.2-1.4,4.1c0,1.9,0.5,3.2,1.4,4.1
			c0.9,0.8,2.5,1.3,4.8,1.3C207,25.5,208.2,25.3,209.1,25z"/>
		<path class="st0" d="M219.1,30.1c-1.4-1.5-2.1-3.9-2.1-7.2c0-3,0.6-5.2,1.9-6.8c1.3-1.5,3.3-2.3,6-2.3c2.3,0,4.1,0.6,5.2,1.9
			c1.1,1.3,1.7,2.9,1.7,5v3.1h-13.8c0,1.8,0.3,3.2,0.8,4.3c0.5,1.1,1.3,1.9,2.5,2.4c1.2,0.5,2.7,0.8,4.7,0.8c1.5,0,3.1-0.3,4.6-0.9
			v1c-1.5,0.6-3.1,0.9-4.8,0.9C222.7,32.3,220.5,31.6,219.1,30.1z M230.9,22.8v-1.9c0-1.9-0.5-3.4-1.4-4.5c-1-1.1-2.4-1.6-4.5-1.6
			c-2.5,0-4.2,0.7-5.3,2.1c-1.1,1.4-1.6,3.4-1.6,6H230.9z"/>
		<path class="st0" d="M237.1,14.3h0.9l0.2,2.7c0.9-0.7,2-1.3,3.2-1.8c1.2-0.5,2.4-0.9,3.5-1.2v1c-1.1,0.3-2.3,0.7-3.6,1.3
			s-2.3,1.2-3.1,1.8V32h-1V14.3z"/>
	</g>
</g>
<g>
	<g>
		<path class="st0" d="M27.2,22.4H19c-0.7,0-1.3,0.6-1.3,1.3S18.4,25,19,25h8.2c0.7,0,1.3-0.6,1.3-1.3S27.9,22.4,27.2,22.4z"/>
		<path class="st0" d="M20,28.4c0.2-0.2,0.4-0.6,0.4-0.9c0-0.3-0.1-0.7-0.4-0.9c-0.5-0.5-1.3-0.5-1.8,0c-0.2,0.2-0.4,0.6-0.4,0.9
			c0,0.3,0.1,0.7,0.4,0.9c0.2,0.2,0.6,0.4,0.9,0.4C19.5,28.7,19.8,28.6,20,28.4z"/>
		<path class="st0" d="M27.2,28.8c0.7,0,1.3-0.6,1.3-1.3s-0.6-1.3-1.3-1.3h-4.5c-0.7,0-1.3,0.6-1.3,1.3s0.6,1.3,1.3,1.3H27.2z"/>
		<path class="st0" d="M27.2,21.1c0.7,0,1.3-0.6,1.3-1.3s-0.6-1.3-1.3-1.3h-1.5c-0.7,0-1.3,0.6-1.3,1.3s0.6,1.3,1.3,1.3H27.2z"/>
		<path class="st0" d="M22.1,21.1c0.7,0,1.3-0.6,1.3-1.3s-0.6-1.3-1.3-1.3h-3c-0.7,0-1.3,0.6-1.3,1.3s0.6,1.3,1.3,1.3H22.1z"/>
	</g>
	<g>
		<path class="st1" d="M24,36.6c-1,0-1.8-0.8-1.8-1.8c0-1,0.8-1.8,1.7-1.8c1.1-0.1,1.9,0.8,1.9,1.8c0,1-0.8,1.8-1.7,1.8
			C24.1,36.6,24,36.6,24,36.6z"/>
		<path class="st1" d="M18.6,35.7c-0.2,0-0.5,0-0.7-0.1c-1.2-0.5-2.4-1.2-3.4-2.1c-0.8-0.7-0.9-1.8-0.2-2.6c0.7-0.8,1.8-0.9,2.6-0.2
			c0.7,0.6,1.5,1.1,2.4,1.5c0.9,0.4,1.4,1.5,1,2.4C20,35.3,19.3,35.7,18.6,35.7z"/>
		<path class="st1" d="M12.3,28.9c-0.8,0-1.5-0.5-1.7-1.2c-1.1-3.3-0.9-7.1,0.8-10.2c0.5-0.9,1.6-1.3,2.4-0.8
			c0.9,0.5,1.3,1.6,0.8,2.4c-1.2,2.3-1.4,5-0.5,7.4c0.3,1-0.2,2-1.1,2.3C12.7,28.9,12.5,28.9,12.3,28.9z"/>
		<path class="st1" d="M34.5,25.2c-1,0-1.8-0.8-1.8-1.8c0-3.4-1.9-6.6-4.9-8.2c-3-1.7-6.6-1.6-9.6,0.1c-0.9,0.5-2,0.2-2.5-0.6
			c-0.5-0.9-0.2-2,0.6-2.5c4-2.4,9.1-2.5,13.2-0.2c4.1,2.3,6.7,6.6,6.7,11.3C36.4,24.4,35.6,25.2,34.5,25.2
			C34.6,25.2,34.6,25.2,34.5,25.2z"/>
	</g>
</g>
</svg>
