<svg viewBox="0 0 500 50" xmlns="http://www.w3.org/2000/svg"><defs><filter id="a" x="-100%" y="-100%" width="300%" height="300%"><feFlood flood-color="none" result="black"/><feMorphology operator="dilate" radius="2" in="SourceGraphic" result="erode"/><feGaussianBlur in="erode" stdDeviation="4" result="blur"/><feOffset in="blur" dx="2" dy="2" result="offset"/><feComposite operator="atop" in="offset" in2="black" result="merge"/><feComposite operator="in" in="merge" in2="SourceGraphic" result="inner-shadow"/></filter></defs><path fill="#2C6474" d="M20.234 0a3.333 3.333 0 0 1 3.333 3.333c0 .195.137.361.326.404.442.099.877.215 1.305.348a.413.413 0 0 0 .482-.185 3.333 3.333 0 1 1 5.774 3.333.419.419 0 0 0 .081.517c.329.303.645.62.948.949a.42.42 0 0 0 .518.081 3.333 3.333 0 1 1 3.333 5.774.413.413 0 0 0-.186.482c.134.428.25.863.349 1.304.043.19.209.327.403.327a3.334 3.334 0 1 1 0 6.666.415.415 0 0 0-.403.327c-.027.117-.053.236-.083.353-.079.321-.168.638-.266.951a.413.413 0 0 0 .186.482 3.333 3.333 0 1 1-3.333 5.774l-.169-.097a.175.175 0 0 0-.239.239l7.874 13.639-5.997-.388L31.807 50l-7.854-13.602a.207.207 0 0 0-.386.102v.167a3.333 3.333 0 1 1-6.667 0V36.5a.205.205 0 0 0-.164-.201.208.208 0 0 0-.222.099L8.66 50l-2.663-5.387L0 45.001l7.874-13.639a.175.175 0 0 0-.021-.205.178.178 0 0 0-.218-.034l-.168.097a3.333 3.333 0 1 1-3.334-5.774.412.412 0 0 0 .186-.482c-.133-.427-.25-.863-.349-1.304a.415.415 0 0 0-.403-.327 3.333 3.333 0 1 1 0-6.666.415.415 0 0 0 .403-.327c.099-.441.216-.876.349-1.304a.412.412 0 0 0-.186-.482A3.335 3.335 0 0 1 7.467 8.78a.419.419 0 0 0 .517-.081c.303-.329.62-.646.948-.95a.416.416 0 0 0 .081-.516 3.333 3.333 0 0 1 1.221-4.553 3.332 3.332 0 0 1 4.553 1.22.414.414 0 0 0 .482.185c.428-.133.863-.249 1.305-.348a.415.415 0 0 0 .326-.404A3.334 3.334 0 0 1 20.234 0Zm0 10c-5.524 0-10 4.477-10 10s4.476 10 10 10c5.523 0 10-4.477 10-10s-4.477-10-10-10Zm0 6.667a3.333 3.333 0 1 1 0 6.665 3.333 3.333 0 0 1 0-6.665Z"/><g filter="url(#a)" transform="translate(-24.438 -37.902) scale(.75547)"><path d="M4.48-47.55q0-1.09.7-1.76.71-.67 1.73-.67 1.09 0 1.76.67.67.67.67 1.76v36.48q0 2.75 1.12 4.48 1.12 1.73 2.85 1.73h1.6q.96 0 1.54.67.57.67.57 1.76 0 1.09-.8 1.76-.8.67-2.08.67h-.83q-3.9 0-6.37-3.1-2.46-3.11-2.46-7.97v-36.48Zm20.35 15.04q0-1.09.71-1.79.7-.71 1.79-.71t1.76.71q.67.7.67 1.79V-2.5q0 1.09-.67 1.8-.67.7-1.76.7-1.09 0-1.79-.7-.71-.71-.71-1.8v-30.01Zm2.5-16.13q1.41 0 2.43.96 1.02.96 1.02 2.5 0 1.47-1.02 2.49-1.02 1.03-2.5 1.03-1.47 0-2.46-1.03-.99-1.02-.99-2.49 0-1.54 1.02-2.5 1.03-.96 2.5-.96Zm29.95 13.31q8 0 12.99 6.15.51.57.51 1.34 0 1.02-1.08 1.79-.58.39-1.22.39-.96 0-1.86-.96-1.92-2.12-4.22-3.17-2.3-1.06-5.12-1.06-3.52 0-6.27 1.7-2.75 1.69-4.26 4.77-1.5 3.07-1.5 6.91 0 3.77 1.6 6.81 1.6 3.04 4.48 4.77 2.88 1.73 6.59 1.73 5.12 0 8.26-2.75.83-.71 1.72-.71.77 0 1.41.52.9.76.9 1.72 0 .84-.64 1.41Q64.96.32 57.92.32q-4.99 0-8.96-2.34-3.97-2.33-6.24-6.4-2.27-4.06-2.27-9.05 0-5.12 2.17-9.19 2.18-4.06 6.02-6.36 3.84-2.31 8.64-2.31Zm38.08 0q4.74 0 8.38 2.21 3.65 2.21 5.67 6.11 2.01 3.91 2.01 8.9 0 1.02-.64 1.63-.64.61-1.66.61H83.26q.52 5.25 4.1 8.51 3.58 3.26 8.96 3.26 2.3 0 4.64-.8t3.74-2.01q.84-.64 1.73-.64.71 0 1.41.51.83.77.83 1.73 0 .83-.7 1.47-2.11 1.79-5.38 2.98Q99.33.32 96.32.32q-5.12 0-9.15-2.27t-6.31-6.34q-2.27-4.06-2.27-9.18 0-5.19 2.15-9.25 2.14-4.06 5.95-6.34 3.81-2.27 8.67-2.27Zm0 4.42q-4.86 0-8.06 3.01-3.2 3-3.91 7.93h23.43q-.52-4.93-3.59-7.93-3.07-3.01-7.87-3.01Zm40.96-4.48q4.54 0 8.16 1.92t5.66 5.6q2.05 3.68 2.05 8.8v16.64q0 1.02-.7 1.73-.71.7-1.73.7-1.09 0-1.79-.7-.71-.71-.71-1.73v-16.64q0-5.7-3.16-8.67-3.17-2.98-8.29-2.98-3.14 0-5.67 1.22-2.52 1.21-4 3.36-1.47 2.14-1.47 4.76v18.95q0 1.09-.67 1.76-.67.67-1.76.67-1.09 0-1.79-.67-.71-.67-.71-1.76v-30.08q0-1.09.71-1.79.7-.71 1.79-.71t1.76.71q.67.7.67 1.79v2.17q2.11-2.36 5.12-3.71 3.01-1.34 6.53-1.34Zm41.73.06q8 0 12.99 6.15.51.57.51 1.34 0 1.02-1.09 1.79-.57.39-1.21.39-.96 0-1.86-.96-1.92-2.12-4.22-3.17-2.31-1.06-5.12-1.06-3.52 0-6.27 1.7-2.76 1.69-4.26 4.77-1.5 3.07-1.5 6.91 0 3.77 1.6 6.81 1.6 3.04 4.48 4.77 2.88 1.73 6.59 1.73 5.12 0 8.25-2.75.84-.71 1.73-.71.77 0 1.41.52.9.76.9 1.72 0 .84-.64 1.41Q185.73.32 178.69.32q-4.99 0-8.96-2.34-3.97-2.33-6.24-6.4-2.27-4.06-2.27-9.05 0-5.12 2.17-9.19 2.18-4.06 6.02-6.36 3.84-2.31 8.64-2.31Zm38.08 0q4.73 0 8.38 2.21 3.65 2.21 5.67 6.11 2.01 3.91 2.01 8.9 0 1.02-.64 1.63-.64.61-1.66.61h-25.86q.51 5.25 4.1 8.51 3.58 3.26 8.96 3.26 2.3 0 4.64-.8 2.33-.8 3.74-2.01.83-.64 1.73-.64.7 0 1.41.51.83.77.83 1.73 0 .83-.7 1.47-2.12 1.79-5.38 2.98Q220.1.32 217.09.32q-5.12 0-9.15-2.27-4.04-2.27-6.31-6.34-2.27-4.06-2.27-9.18 0-5.19 2.14-9.25 2.15-4.06 5.96-6.34 3.8-2.27 8.67-2.27Zm0 4.42q-4.87 0-8.07 3.01-3.2 3-3.9 7.93h23.42q-.51-4.93-3.58-7.93-3.07-3.01-7.87-3.01Zm36.48-4.42q4.22 0 7.36 1.44 3.13 1.44 5.05 4 .52.83.52 1.47 0 1.09-1.03 1.73-.45.32-1.21.32-1.35 0-2.24-.96-3.14-3.58-8.58-3.58-3.52 0-5.63 1.44t-2.11 3.61q0 2.31 1.98 3.68 1.98 1.38 7.04 2.21 6.85 1.15 9.79 3.75 2.95 2.59 2.95 6.43 0 2.94-1.76 5.25-1.76 2.3-4.9 3.58-3.14 1.28-7.1 1.28-3.97 0-7.62-1.34-3.65-1.35-5.89-3.78-.64-.77-.64-1.47 0-1.09 1.03-1.92.76-.58 1.6-.58 1.08 0 1.85.9 1.54 1.79 4.07 2.75 2.52.96 5.6.96 4.48 0 6.72-1.54 2.24-1.53 2.3-4.03 0-2.3-2.24-3.84-2.24-1.53-7.1-2.3-6.28-1.03-9.38-3.55-3.1-2.53-3.1-6.12 0-4.67 3.61-7.23 3.62-2.56 9.06-2.56Z" style="fill:rgb(44, 64, 75)" transform="translate(114.51 100.15)"/></g></svg>