<?xml version="1.0" encoding="utf-8"?>
<!-- Generator: Adobe Illustrator 27.8.1, SVG Export Plug-In . SVG Version: 6.00 Build 0)  -->
<svg version="1.1" id="Calque_1" xmlns="http://www.w3.org/2000/svg" xmlns:xlink="http://www.w3.org/1999/xlink" x="0px" y="0px"
	 viewBox="0 0 300.8 45.9" style="enable-background:new 0 0 300.8 45.9;" xml:space="preserve">
<style type="text/css">
	.st0{fill:#2E6575;}
	.st1{fill:#00B0A3;}
</style>
<g>
	<path class="st0" d="M51.9,30c-1.1-1.2-1.7-2.9-1.7-5.1V13.8h1V25c0,2,0.5,3.5,1.5,4.4c1,1,2.5,1.5,4.6,1.5c2.5,0,4.6-1,6.5-2.9
		V13.8h1v17.7h-0.9l-0.2-2.3c-1,0.9-2.1,1.6-3.1,2c-1.1,0.4-2.4,0.7-4,0.7C54.7,31.8,53.1,31.2,51.9,30z"/>
	<path class="st0" d="M73.5,30.6c-0.8-0.8-1.2-2-1.2-3.4V14.7h-2.9v-1h2.9V8.8l1-0.4v5.3h5.3l-0.1,1h-5.3v12.5
		c0,1.2,0.3,2.1,0.9,2.8c0.6,0.6,1.6,0.9,2.9,0.9c0.6,0,1.3-0.1,2.1-0.4v1c-0.8,0.2-1.6,0.4-2.4,0.4C75.4,31.8,74.3,31.4,73.5,30.6z
		"/>
	<path class="st0" d="M83.4,29.6c-1.4-1.5-2.2-3.7-2.2-6.8c0-3.1,0.7-5.5,2.2-7.1s3.5-2.4,6-2.4c1.3,0,2.4,0.1,3.4,0.4
		c0.9,0.3,1.9,0.8,2.9,1.6V6.3h1v25.2h-0.9l-0.1-2.1c-0.9,0.9-1.8,1.5-2.9,1.9c-1.1,0.4-2.3,0.6-3.7,0.6
		C86.8,31.8,84.9,31.1,83.4,29.6z M92.8,30.3c1-0.4,2-1.1,2.9-2V16.5c-0.8-0.7-1.7-1.3-2.6-1.6c-0.9-0.4-2-0.5-3.3-0.5
		c-2.4,0-4.3,0.7-5.6,2.1c-1.3,1.4-1.9,3.5-1.9,6.4c0,2.7,0.6,4.7,1.8,6.1c1.2,1.3,3,2,5.3,2C90.6,30.9,91.8,30.7,92.8,30.3z"/>
	<path class="st0" d="M110.2,13.8h0.9l0.2,2.3c2.1-1.8,4.4-2.7,6.8-2.7c1.4,0,2.4,0.2,3.2,0.7c0.8,0.4,1.4,1.1,1.7,2
		c2-1.8,4.4-2.7,7.1-2.7c2,0,3.5,0.5,4.5,1.5c1,1,1.5,2.6,1.5,4.7v11.9h-1V19.6c0-1.9-0.4-3.3-1.2-4.1c-0.8-0.8-2.2-1.2-4-1.2
		c-1.2,0-2.4,0.2-3.6,0.7c-1.1,0.4-2.1,1.1-2.8,1.9c0.2,0.8,0.3,1.7,0.3,2.8v11.7h-1V19.8c0-2-0.3-3.4-1-4.2
		c-0.7-0.8-1.9-1.3-3.7-1.3c-1.2,0-2.3,0.3-3.5,0.8c-1.2,0.5-2.2,1.2-3.2,2.1v14.2h-1V13.8z"/>
	<path class="st0" d="M142.2,30.7c-1.1-0.8-1.7-2-1.7-3.7c0-1.6,0.5-2.9,1.5-3.8c1-0.9,2.6-1.3,4.9-1.3h7.1v-2.3
		c0-1.3-0.2-2.4-0.5-3.1c-0.3-0.8-0.9-1.3-1.8-1.7c-0.9-0.3-2.1-0.5-3.7-0.5c-1.9,0-3.7,0.3-5.4,0.9v-1c1.5-0.6,3.4-0.9,5.8-0.9
		c2.4,0,4.1,0.5,5.1,1.4c1.1,1,1.6,2.5,1.6,4.7v11.9h-0.8L154,29c-0.9,1-1.9,1.7-3.1,2.1c-1.2,0.4-2.6,0.7-4.3,0.7
		C144.8,31.8,143.3,31.4,142.2,30.7z M150.9,30.2c1.1-0.5,2.1-1.2,3-2.3v-5h-7c-2,0-3.4,0.3-4.2,1c-0.8,0.7-1.2,1.7-1.2,3.1
		c0,2.6,1.8,3.9,5.4,3.9C148.5,30.9,149.8,30.7,150.9,30.2z"/>
	<path class="st0" d="M160.8,13.8h0.9l0.2,2.3c1-0.9,2.1-1.5,3.3-2c1.2-0.5,2.6-0.7,4.2-0.7c2.1,0,3.7,0.5,4.7,1.5
		c1,1,1.5,2.6,1.5,4.7v11.8h-1V19.6c0-1.3-0.2-2.4-0.5-3.1c-0.3-0.8-0.9-1.3-1.7-1.7c-0.8-0.3-2-0.5-3.4-0.5c-1.3,0-2.6,0.3-3.8,0.8
		s-2.2,1.2-3.2,2.1v14.2h-1V13.8z"/>
	<path class="st0" d="M181.6,30.7c-1.1-0.8-1.7-2-1.7-3.7c0-1.6,0.5-2.9,1.5-3.8c1-0.9,2.6-1.3,4.9-1.3h7.1v-2.3
		c0-1.3-0.2-2.4-0.5-3.1c-0.3-0.8-0.9-1.3-1.8-1.7c-0.9-0.3-2.1-0.5-3.7-0.5c-1.9,0-3.7,0.3-5.4,0.9v-1c1.5-0.6,3.4-0.9,5.8-0.9
		c2.4,0,4.1,0.5,5.1,1.4s1.6,2.5,1.6,4.7v11.9h-0.8l-0.1-2.4c-0.9,1-1.9,1.7-3.1,2.1c-1.2,0.4-2.6,0.7-4.3,0.7
		C184.2,31.8,182.8,31.4,181.6,30.7z M190.3,30.2c1.1-0.5,2.1-1.2,3-2.3v-5h-7c-2,0-3.4,0.3-4.2,1c-0.8,0.7-1.2,1.7-1.2,3.1
		c0,2.6,1.8,3.9,5.4,3.9C187.9,30.9,189.2,30.7,190.3,30.2z"/>
	<path class="st0" d="M200.1,37.1v-1c1.9,0.6,4.1,0.9,6.7,0.9c2.3,0,3.9-0.2,5-0.6c1-0.4,1.6-1.2,1.6-2.5c0-1-0.3-1.8-0.9-2.2
		c-0.6-0.4-1.7-0.6-3.4-0.6h-4.9c-1.6,0-2.8-0.2-3.6-0.7c-0.7-0.5-1.1-1.2-1.1-2.2c0-0.7,0.3-1.4,0.9-2c0.6-0.6,1.4-1,2.5-1.2
		c-2.1-0.7-3.2-2.6-3.2-5.5c0-2.2,0.6-3.8,1.7-4.8c1.1-1,3-1.5,5.5-1.5c0.7,0,1.6,0.1,2.7,0.4h6.1l-0.1,1h-3.7
		c1.4,1.1,2.1,2.8,2.1,5c0,2.1-0.6,3.7-1.7,4.7c-1.1,1-3,1.5-5.5,1.5c-0.8,0-1.7-0.1-2.6-0.3c-1.1,0.1-2.1,0.4-2.7,0.9
		c-0.7,0.4-1,1-1,1.8c0,0.7,0.3,1.2,0.8,1.5c0.5,0.3,1.5,0.4,2.9,0.4h5.1c1.7,0,3,0.3,3.8,0.9c0.8,0.6,1.3,1.5,1.3,2.8
		c0,1.6-0.6,2.7-1.8,3.3c-1.2,0.6-3.1,0.8-5.7,0.8C204,38,201.8,37.7,200.1,37.1z M210.5,24.5c0.9-0.3,1.5-0.9,1.9-1.7
		c0.4-0.8,0.6-1.8,0.6-3.1c0-1.9-0.5-3.3-1.4-4.1c-1-0.8-2.5-1.3-4.7-1.3c-2.2,0-3.8,0.4-4.7,1.2c-0.9,0.8-1.4,2.2-1.4,4.1
		c0,1.9,0.5,3.2,1.4,4.1c0.9,0.8,2.5,1.3,4.8,1.3C208.3,25,209.6,24.8,210.5,24.5z"/>
	<path class="st0" d="M220.5,29.6c-1.4-1.5-2.1-3.9-2.1-7.2c0-3,0.6-5.2,1.9-6.8c1.3-1.5,3.3-2.3,6-2.3c2.3,0,4.1,0.6,5.2,1.9
		c1.1,1.3,1.7,2.9,1.7,5v3.1h-13.8c0,1.8,0.3,3.2,0.8,4.3s1.3,1.9,2.5,2.4c1.2,0.5,2.7,0.8,4.7,0.8c1.5,0,3.1-0.3,4.6-0.9v1
		c-1.5,0.6-3.1,0.9-4.8,0.9C224.1,31.8,221.8,31.1,220.5,29.6z M232.2,22.3v-1.9c0-1.9-0.5-3.4-1.4-4.5s-2.4-1.6-4.5-1.6
		c-2.5,0-4.2,0.7-5.3,2.1c-1.1,1.4-1.6,3.4-1.6,6H232.2z"/>
	<path class="st0" d="M238.5,13.8h0.9l0.2,2.7c0.9-0.7,2-1.3,3.2-1.8c1.2-0.5,2.4-0.9,3.5-1.2v1c-1.1,0.3-2.3,0.7-3.6,1.3
		c-1.3,0.6-2.3,1.2-3.1,1.8v14.1h-1V13.8z"/>
</g>
<g>
	<path class="st0" d="M18.8,18.4h-5.7c-1,0-1.8-0.8-1.8-1.8v-5.7c0-1,0.8-1.8,1.8-1.8h5.7c1,0,1.8,0.8,1.8,1.8v5.7
		C20.7,17.5,19.9,18.4,18.8,18.4z"/>
	<path class="st1" d="M28,19l-4-4c-0.7-0.7-0.7-1.9,0-2.6l4-4c0.7-0.7,1.9-0.7,2.6,0l4,4c0.7,0.7,0.7,1.9,0,2.6l-4,4
		C29.9,19.7,28.8,19.7,28,19z"/>
	<path class="st0" d="M18.8,32.7h-5.7c-1,0-1.8-0.8-1.8-1.8v-5.7c0-1,0.8-1.8,1.8-1.8h5.7c1,0,1.8,0.8,1.8,1.8v5.7
		C20.7,31.9,19.9,32.7,18.8,32.7z"/>
	<path class="st0" d="M32.2,32.7h-5.7c-1,0-1.8-0.8-1.8-1.8v-5.7c0-1,0.8-1.8,1.8-1.8h5.7c1,0,1.8,0.8,1.8,1.8v5.7
		C34,31.9,33.2,32.7,32.2,32.7z"/>
</g>
</svg>
