<?xml version="1.0" encoding="UTF-8"?><svg id="Calque_1" xmlns="http://www.w3.org/2000/svg" viewBox="0 0 300.76 45.95"><defs><style>.cls-1{fill:#00b0a3;}.cls-2{fill:#2e6575;}</style></defs><g><path class="cls-2" d="M51.39,30.66c-1.13-.78-1.7-2.01-1.7-3.68s.49-2.87,1.48-3.76c.98-.88,2.61-1.33,4.88-1.33h7.06v-2.28c0-1.32-.17-2.36-.5-3.12-.34-.76-.93-1.31-1.79-1.66-.86-.35-2.1-.52-3.72-.52-1.89,0-3.7,.31-5.42,.93v-.97c1.5-.6,3.41-.9,5.76-.9s4.08,.48,5.14,1.44c1.06,.96,1.59,2.54,1.59,4.73v11.92h-.82l-.15-2.43c-.87,.97-1.89,1.68-3.06,2.13-1.17,.45-2.6,.67-4.3,.67-1.82,0-3.3-.39-4.43-1.18Zm8.73-.47c1.12-.47,2.12-1.23,2.99-2.28v-5.04h-6.99c-2.02,0-3.43,.34-4.22,1.01-.8,.67-1.2,1.71-1.2,3.1,0,2.62,1.79,3.92,5.38,3.92,1.57,0,2.92-.24,4.04-.71Z"/><path class="cls-2" d="M71.36,29.63c-1.45-1.47-2.17-3.74-2.17-6.8s.73-5.5,2.19-7.08,3.46-2.37,6-2.37c1.32,0,2.45,.15,3.38,.45,.93,.3,1.89,.82,2.86,1.57V6.28h1.05V31.47h-.86l-.15-2.13c-.87,.87-1.84,1.51-2.9,1.91-1.06,.4-2.29,.6-3.68,.6-2.37,0-4.27-.74-5.72-2.21Zm9.4,.63c1.03-.42,1.99-1.1,2.86-2.02v-11.77c-.85-.72-1.73-1.26-2.63-1.63-.91-.36-2-.54-3.27-.54-2.44,0-4.3,.71-5.59,2.13-1.28,1.42-1.92,3.55-1.92,6.39,0,2.69,.6,4.71,1.81,6.05,1.21,1.34,2.96,2.02,5.25,2.02,1.3,0,2.46-.21,3.49-.64Z"/><path class="cls-2" d="M90.65,13.75h.86l.19,2.32c2.12-1.79,4.37-2.69,6.76-2.69,1.37,0,2.45,.22,3.23,.67,.79,.45,1.36,1.11,1.74,1.98,1.99-1.77,4.36-2.65,7.1-2.65,1.99,0,3.48,.5,4.47,1.51,.98,1.01,1.48,2.56,1.48,4.65v11.92h-1.05v-11.88c0-1.92-.41-3.28-1.23-4.07-.82-.8-2.16-1.2-4-1.2-1.25,0-2.43,.22-3.55,.67-1.12,.45-2.07,1.1-2.84,1.94,.2,.8,.3,1.74,.3,2.84v11.7h-1.05v-11.7c0-1.97-.34-3.37-1.01-4.2-.67-.83-1.89-1.25-3.66-1.25-1.17,0-2.35,.27-3.53,.82-1.18,.55-2.24,1.25-3.16,2.09v14.24h-1.05V13.75Z"/><path class="cls-2" d="M125.14,14.72h-2.88v-.97h3.92V31.47h-1.05V14.72Zm-.26-7.7h1.31v1.64h-1.31v-1.64Z"/><path class="cls-2" d="M132.16,13.75h.86l.19,2.32c1-.87,2.09-1.54,3.27-2,1.18-.46,2.58-.69,4.2-.69,2.14,0,3.71,.5,4.69,1.5,.98,1,1.48,2.58,1.48,4.75v11.85h-1.05v-11.85c0-1.32-.17-2.36-.5-3.12-.34-.76-.92-1.31-1.74-1.66-.82-.35-1.97-.52-3.44-.52-1.35,0-2.6,.26-3.76,.78-1.16,.52-2.21,1.23-3.16,2.13v14.24h-1.05V13.75Z"/><path class="cls-2" d="M155.52,14.72h-2.88v-.97h3.92V31.47h-1.05V14.72Zm-.26-7.7h1.31v1.64h-1.31v-1.64Z"/><path class="cls-2" d="M162.32,31.17v-.97c1.59,.47,3.25,.71,4.97,.71,1.89,0,3.26-.29,4.09-.88,.83-.58,1.25-1.55,1.25-2.9,0-.85-.16-1.5-.47-1.96s-.75-.83-1.33-1.1c-.57-.27-1.51-.63-2.8-1.08l-.78-.26c-.12-.05-.4-.14-.82-.26-1.1-.37-1.94-.71-2.54-1.01-.6-.3-1.1-.73-1.49-1.31-.4-.57-.6-1.34-.6-2.32,0-1.5,.48-2.61,1.44-3.34,.96-.73,2.5-1.1,4.61-1.1,1.74,0,3.23,.19,4.45,.56v.97c-1.42-.4-2.85-.6-4.3-.6-1.94,0-3.29,.27-4.05,.82-.76,.55-1.14,1.43-1.14,2.65,0,.8,.15,1.42,.45,1.87,.3,.45,.76,.82,1.38,1.1,.62,.29,1.59,.64,2.91,1.06,1.54,.5,2.72,.93,3.53,1.31,.81,.37,1.44,.87,1.89,1.5,.45,.62,.67,1.46,.67,2.5,0,1.67-.54,2.87-1.61,3.61-1.07,.73-2.62,1.1-4.63,1.1s-3.61-.22-5.08-.67Z"/><path class="cls-2" d="M181.45,30.61c-.8-.82-1.2-1.96-1.2-3.4V14.72h-2.88v-.97h2.88v-4.93l1.05-.37v5.31h5.34l-.07,.97h-5.27v12.48c0,1.22,.31,2.14,.92,2.76,.61,.62,1.56,.93,2.86,.93,.6,0,1.3-.14,2.09-.41v.97c-.8,.25-1.61,.37-2.43,.37-1.4,0-2.49-.41-3.29-1.23Z"/><path class="cls-2" d="M191.66,13.75h.86l.19,2.65c.95-.67,2.01-1.28,3.19-1.81,1.18-.54,2.36-.94,3.53-1.21v.97c-1.12,.27-2.34,.71-3.64,1.31-1.31,.6-2.34,1.18-3.08,1.76v14.05h-1.05V13.75Z"/><path class="cls-2" d="M202.62,30.66c-1.13-.78-1.7-2.01-1.7-3.68s.49-2.87,1.48-3.76c.98-.88,2.61-1.33,4.88-1.33h7.06v-2.28c0-1.32-.17-2.36-.5-3.12-.34-.76-.93-1.31-1.79-1.66-.86-.35-2.1-.52-3.72-.52-1.89,0-3.7,.31-5.42,.93v-.97c1.5-.6,3.41-.9,5.76-.9s4.08,.48,5.14,1.44c1.06,.96,1.59,2.54,1.59,4.73v11.92h-.82l-.15-2.43c-.87,.97-1.89,1.68-3.06,2.13-1.17,.45-2.6,.67-4.3,.67-1.82,0-3.3-.39-4.43-1.18Zm8.73-.47c1.12-.47,2.12-1.23,2.99-2.28v-5.04h-6.99c-2.02,0-3.43,.34-4.22,1.01-.8,.67-1.2,1.71-1.2,3.1,0,2.62,1.79,3.92,5.38,3.92,1.57,0,2.92-.24,4.04-.71Z"/><path class="cls-2" d="M222.82,30.61c-.8-.82-1.2-1.96-1.2-3.4V14.72h-2.88v-.97h2.88v-4.93l1.05-.37v5.31h5.34l-.07,.97h-5.27v12.48c0,1.22,.31,2.14,.92,2.76,.61,.62,1.56,.93,2.86,.93,.6,0,1.3-.14,2.09-.41v.97c-.8,.25-1.61,.37-2.43,.37-1.4,0-2.49-.41-3.29-1.23Z"/><path class="cls-2" d="M235.9,14.72h-2.88v-.97h3.92V31.47h-1.05V14.72Zm-.26-7.7h1.31v1.64h-1.31v-1.64Z"/><path class="cls-2" d="M244.1,29.54c-1.28-1.53-1.92-3.84-1.92-6.93s.65-5.37,1.94-6.91c1.29-1.54,3.34-2.32,6.13-2.32s4.83,.77,6.13,2.32c1.29,1.54,1.94,3.85,1.94,6.91s-.64,5.4-1.92,6.93-3.33,2.3-6.15,2.3-4.86-.77-6.15-2.3Zm11.58-.65c1.08-1.35,1.63-3.44,1.63-6.28s-.55-4.93-1.64-6.28c-1.1-1.35-2.9-2.02-5.42-2.02s-4.32,.67-5.42,2.02c-1.1,1.35-1.64,3.44-1.64,6.28s.54,4.93,1.63,6.28c1.08,1.34,2.9,2.02,5.44,2.02s4.35-.67,5.44-2.02Z"/><path class="cls-2" d="M263.55,13.75h.86l.19,2.32c1-.87,2.09-1.54,3.27-2,1.18-.46,2.58-.69,4.2-.69,2.14,0,3.71,.5,4.69,1.5,.98,1,1.48,2.58,1.48,4.75v11.85h-1.05v-11.85c0-1.32-.17-2.36-.5-3.12-.34-.76-.92-1.31-1.74-1.66-.82-.35-1.97-.52-3.44-.52-1.35,0-2.6,.26-3.76,.78s-2.21,1.23-3.16,2.13v14.24h-1.05V13.75Z"/></g><circle class="cls-1" cx="22.82" cy="11.2" r="4.13"/><path class="cls-1" d="M31.96,24.83c-.55,0-1-.45-1-1v-1.73H14.17v1.73c0,.55-.45,1-1,1s-1-.45-1-1v-3.72h20.78v3.72c0,.55-.45,1-1,1Z"/><path class="cls-1" d="M22.82,14.88c-2.5,0-4.7,1.23-6.05,3.12h12.1c-1.35-1.89-3.55-3.12-6.05-3.12Z"/><circle class="cls-2" cx="13.17" cy="31.08" r="4.13"/><path class="cls-2" d="M13.17,34.76c-2.5,0-4.7,1.23-6.05,3.12h12.1c-1.35-1.89-3.55-3.12-6.05-3.12Z"/><circle class="cls-2" cx="31.96" cy="31.08" r="4.13"/><path class="cls-2" d="M31.96,34.76c-2.5,0-4.7,1.23-6.05,3.12h12.1c-1.35-1.89-3.55-3.12-6.05-3.12Z"/></svg>