<?xml version="1.0" encoding="utf-8"?>
<!-- Generator: Adobe Illustrator 26.0.3, SVG Export Plug-In . SVG Version: 6.00 Build 0)  -->
<svg version="1.1" id="Calque_1" xmlns="http://www.w3.org/2000/svg" xmlns:xlink="http://www.w3.org/1999/xlink" x="0px" y="0px"
	 viewBox="0 0 463.84 70.87" style="enable-background:new 0 0 463.84 70.87;" xml:space="preserve">
<style type="text/css">
	.st0{fill:#2E6575;}
	.st1{fill:#00AFA5;}
</style>
<g>
	<g>
		<path class="st0" d="M77.79,21.21h1.33l0.29,3.57c3.27-2.77,6.74-4.15,10.43-4.15c2.11,0,3.78,0.34,4.99,1.04
			c1.21,0.69,2.1,1.71,2.68,3.05c3.07-2.73,6.72-4.09,10.95-4.09c3.07,0,5.37,0.78,6.89,2.33c1.52,1.56,2.28,3.95,2.28,7.18v18.38
			H116V30.2c0-2.96-0.63-5.05-1.9-6.28c-1.27-1.23-3.32-1.84-6.17-1.84c-1.92,0-3.75,0.34-5.48,1.04c-1.73,0.69-3.19,1.69-4.38,3
			c0.31,1.23,0.46,2.69,0.46,4.38v18.04h-1.61V30.49c0-3.03-0.52-5.2-1.56-6.48c-1.04-1.29-2.92-1.93-5.65-1.93
			c-1.81,0-3.62,0.42-5.45,1.27c-1.83,0.85-3.45,1.92-4.87,3.23v21.96h-1.61V21.21z"/>
		<path class="st0" d="M126.2,48.07v-1.5c2.46,0.73,5.01,1.09,7.67,1.09c2.92,0,5.02-0.45,6.31-1.35c1.29-0.9,1.93-2.39,1.93-4.47
			c0-1.31-0.24-2.31-0.72-3.03c-0.48-0.71-1.16-1.28-2.05-1.7c-0.88-0.42-2.32-0.98-4.32-1.67l-1.21-0.4
			c-0.19-0.08-0.62-0.21-1.27-0.4c-1.69-0.58-3-1.09-3.92-1.56c-0.92-0.46-1.69-1.13-2.31-2.02c-0.62-0.88-0.92-2.07-0.92-3.57
			c0-2.31,0.74-4.03,2.22-5.16c1.48-1.13,3.85-1.7,7.12-1.7c2.69,0,4.98,0.29,6.86,0.86V23c-2.19-0.61-4.4-0.92-6.63-0.92
			c-3,0-5.08,0.42-6.25,1.27c-1.17,0.85-1.76,2.21-1.76,4.09c0,1.23,0.23,2.19,0.69,2.88c0.46,0.69,1.17,1.26,2.13,1.7
			c0.96,0.44,2.46,0.99,4.49,1.64c2.38,0.77,4.2,1.44,5.45,2.02c1.25,0.58,2.22,1.35,2.91,2.31c0.69,0.96,1.04,2.25,1.04,3.86
			c0,2.57-0.83,4.43-2.48,5.56c-1.65,1.13-4.03,1.7-7.15,1.7C131.08,49.1,128.46,48.76,126.2,48.07z"/>
		<path class="st0" d="M153.55,45.56c-1.98-2.36-2.97-5.93-2.97-10.69c0-4.73,1-8.28,3-10.66c2-2.38,5.15-3.57,9.45-3.57
			c4.3,0,7.45,1.19,9.45,3.57c2,2.38,3,5.94,3,10.66c0,4.76-0.99,8.33-2.97,10.69c-1.98,2.36-5.14,3.55-9.48,3.55
			C158.68,49.1,155.52,47.92,153.55,45.56z M171.41,44.55c1.67-2.08,2.51-5.3,2.51-9.68c0-4.38-0.85-7.61-2.54-9.68
			c-1.69-2.08-4.48-3.11-8.36-3.11c-3.88,0-6.67,1.04-8.36,3.11c-1.69,2.08-2.54,5.3-2.54,9.68c0,4.38,0.84,7.61,2.51,9.68
			c1.67,2.07,4.47,3.11,8.39,3.11C166.94,47.66,169.74,46.63,171.41,44.55z"/>
	</g>
	<g>
		<g>
			<path class="st0" d="M51.89,11.66c-2.43-0.86-5.1,0.41-5.96,2.85l-7.33,20.71l5.52,12.42l10.63-30.02
				C55.6,15.19,54.32,12.52,51.89,11.66z"/>
		</g>
		<g>
			<path class="st1" d="M19.9,45.35c-0.54,0-1.08-0.09-1.61-0.29c-2.42-0.89-3.66-3.58-2.77-6l5.72-15.56
				c0.89-2.42,3.58-3.66,6-2.77c2.42,0.89,3.66,3.58,2.77,6l-5.72,15.56C23.59,44.18,21.81,45.35,19.9,45.35z"/>
			<g>
				<path class="st0" d="M41.86,50.16l-9.4-21.17l-4.63,12.6l5.49,12.36c0.77,1.74,2.48,2.78,4.27,2.78c0.63,0,1.28-0.13,1.89-0.4
					C41.84,55.28,42.9,52.52,41.86,50.16z"/>
			</g>
		</g>
	</g>
</g>
</svg>
