<?xml version="1.0" encoding="utf-8"?>
<!-- Generator: Adobe Illustrator 26.0.3, SVG Export Plug-In . SVG Version: 6.00 Build 0)  -->
<svg version="1.1" id="Calque_1" xmlns="http://www.w3.org/2000/svg" xmlns:xlink="http://www.w3.org/1999/xlink" x="0px" y="0px"
	 viewBox="0 0 60.63 60.63" style="enable-background:new 0 0 60.63 60.63;" xml:space="preserve">
<style type="text/css">
	.st0{fill-rule:evenodd;clip-rule:evenodd;fill:url(#SVGID_1_);}
	.st1{fill:#00AFA5;}
	.st2{fill:#2E6575;}
</style>
<linearGradient id="SVGID_1_" gradientUnits="userSpaceOnUse" x1="30.3165" y1="3.637979e-12" x2="30.3165" y2="60.633">
	<stop  offset="0" style="stop-color:#FFFFFF"/>
	<stop  offset="0.3531" style="stop-color:#FCFDFC"/>
	<stop  offset="0.6511" style="stop-color:#F1F6F5"/>
	<stop  offset="0.9281" style="stop-color:#E0EAE7"/>
	<stop  offset="1" style="stop-color:#DAE6E3"/>
</linearGradient>
<path class="st0" d="M43.38,60.63H17.26C7.73,60.63,0,52.91,0,43.38V17.26C0,7.73,7.73,0,17.26,0h26.12
	c9.53,0,17.26,7.73,17.26,17.26v26.12C60.63,52.91,52.91,60.63,43.38,60.63z"/>
<g>
	<g>
		<g>
			<path class="st1" d="M27.17,31.77l-4.34-7.91l13.58-7.45c2.18-1.2,4.93-0.4,6.13,1.78l0,0c1.2,2.18,0.4,4.93-1.78,6.13
				L27.17,31.77z"/>
			<polygon class="st2" points="15.74,32.9 20.8,24.97 25.14,32.88 			"/>
		</g>
	</g>
	<path class="st2" d="M41.78,42.7H18.68c-1.86,0-3.37-1.51-3.37-3.37s1.51-3.37,3.37-3.37h23.11c1.86,0,3.37,1.51,3.37,3.37
		S43.64,42.7,41.78,42.7z"/>
</g>
</svg>
