<svg version="1.1" xmlns="http://www.w3.org/2000/svg" xmlns:xlink="http://www.w3.org/1999/xlink" x="0" y="0" viewBox="0 0 512.003 512.003" style="enable-background:new 0 0 512.003 512.003" xml:space="preserve">
  <path style="fill:#306172" d="M175.594 503.052h-55.22a14.627 14.627 0 0 1-14.443-12.315l-3.523-22.022a127.669 127.669 0 0 1-34.093-19.711l-20.856 7.972a14.627 14.627 0 0 1-17.887-6.347L1.961 402.807a14.628 14.628 0 0 1 3.443-18.665l17.317-14.07a127.806 127.806 0 0 1 .001-39.385l-17.318-14.07a14.625 14.625 0 0 1-3.443-18.664l27.611-47.824a14.625 14.625 0 0 1 17.888-6.349l20.857 7.974a127.725 127.725 0 0 1 34.09-19.705l3.523-22.027a14.626 14.626 0 0 1 14.443-12.316h55.218a14.623 14.623 0 0 1 14.441 12.313l4.913 30.683c1.278 7.977-4.154 15.477-12.129 16.753-7.969 1.278-15.477-4.154-16.753-12.129l-2.941-18.37h-30.276l-2.937 18.367a14.624 14.624 0 0 1-10.209 11.69c-14.226 4.301-27.509 11.98-38.411 22.203a14.626 14.626 0 0 1-15.227 2.992l-17.397-6.65-15.139 26.22 14.434 11.727a14.63 14.63 0 0 1 5.025 14.658 98.434 98.434 0 0 0-2.542 22.219c0 7.479.854 14.953 2.54 22.212a14.624 14.624 0 0 1-5.024 14.661l-14.434 11.727L48.667 425.2l17.397-6.65a14.629 14.629 0 0 1 15.229 2.995c10.897 10.225 24.179 17.903 38.408 22.206a14.625 14.625 0 0 1 10.209 11.689l2.937 18.361h30.278l2.941-18.364a14.625 14.625 0 0 1 10.207-11.686c14.228-4.303 27.506-11.983 38.403-22.206a14.623 14.623 0 0 1 15.228-2.995l17.401 6.65 15.136-26.219-14.435-11.727a14.629 14.629 0 0 1-5.021-14.674 97.856 97.856 0 0 0 2.539-22.198c0-7.504-.854-14.975-2.539-22.206-1.834-7.867 3.057-15.73 10.924-17.564 7.87-1.834 15.73 3.057 17.564 10.924a127.26 127.26 0 0 1 3.304 28.846c0 6.608-.512 13.201-1.525 19.692l17.315 14.067a14.626 14.626 0 0 1 3.444 18.664l-27.607 47.821a14.621 14.621 0 0 1-17.887 6.349l-20.865-7.971a127.682 127.682 0 0 1-34.09 19.712l-3.528 22.024a14.624 14.624 0 0 1-14.44 12.312z"/>
  <circle style="fill:#6BABBD" cx="147.981" cy="350.384" r="43.157"/>
  <path style="fill:#306172" d="M147.984 408.162c-31.862 0-57.784-25.921-57.784-57.782s25.922-57.782 57.784-57.782 57.782 25.921 57.782 57.782-25.92 57.782-57.782 57.782zm0-86.315c-15.733 0-28.533 12.799-28.533 28.531s12.799 28.531 28.533 28.531c15.733 0 28.531-12.799 28.531-28.531.001-15.732-12.798-28.531-28.531-28.531z"/>
  <path style="fill:#6BABBD" d="M476.183 161.63a112.24 112.24 0 0 0-2.922-25.526l24.114-19.591-27.607-47.824-29.052 11.104c-12.41-11.636-27.471-20.48-44.176-25.533l-4.911-30.683h-55.22l-4.907 30.683c-16.71 5.053-31.771 13.897-44.181 25.533l-29.048-11.104-27.613 47.824 24.113 19.591a112.75 112.75 0 0 0-2.921 25.526c0 8.777 1.016 17.324 2.921 25.521l-24.113 19.591 27.613 47.821 29.048-11.104c12.41 11.643 27.471 20.486 44.181 25.539l4.907 30.675h55.22l4.911-30.675c16.705-5.053 31.766-13.897 44.176-25.539l29.052 11.104 27.607-47.821-24.114-19.591a112.273 112.273 0 0 0 2.922-25.521zm-112.165 43.153c-23.835 0-43.157-19.322-43.157-43.157s19.322-43.158 43.157-43.158 43.157 19.322 43.157 43.157-19.322 43.158-43.157 43.158z"/>
  <path style="fill:#306172" d="M391.628 314.3h-55.22a14.627 14.627 0 0 1-14.443-12.316l-3.522-22.022a127.653 127.653 0 0 1-34.093-19.711l-20.856 7.972a14.626 14.626 0 0 1-17.888-6.347l-27.613-47.822a14.628 14.628 0 0 1 3.443-18.665l17.318-14.07a127.806 127.806 0 0 1 .001-39.385l-17.318-14.071a14.626 14.626 0 0 1-3.443-18.665l27.613-47.824a14.625 14.625 0 0 1 17.888-6.347l20.857 7.974a127.721 127.721 0 0 1 34.09-19.705l3.522-22.029a14.626 14.626 0 0 1 14.443-12.316h55.22a14.627 14.627 0 0 1 14.443 12.313l3.526 22.03a127.741 127.741 0 0 1 34.088 19.705l20.863-7.974a14.623 14.623 0 0 1 17.888 6.349l27.607 47.824a14.627 14.627 0 0 1-3.444 18.664l-17.317 14.067a127.802 127.802 0 0 1 .002 39.391l17.315 14.067a14.623 14.623 0 0 1 3.444 18.664l-27.607 47.822a14.625 14.625 0 0 1-17.888 6.349l-20.86-7.974a127.67 127.67 0 0 1-34.09 19.712l-3.528 22.024a14.625 14.625 0 0 1-14.441 12.316zm-42.747-29.251h30.278l2.941-18.362A14.627 14.627 0 0 1 392.307 255c14.226-4.303 27.506-11.983 38.403-22.207a14.624 14.624 0 0 1 15.229-2.995l17.4 6.65 15.136-26.219-14.435-11.727a14.624 14.624 0 0 1-5.021-14.675 97.843 97.843 0 0 0 2.539-22.198c0-7.504-.854-14.976-2.54-22.206a14.624 14.624 0 0 1 5.021-14.672l14.437-11.728-15.137-26.218-17.4 6.65a14.625 14.625 0 0 1-15.225-2.992c-10.903-10.222-24.183-17.9-38.408-22.203a14.624 14.624 0 0 1-10.207-11.687l-2.94-18.37h-30.278l-2.937 18.367a14.624 14.624 0 0 1-10.209 11.69c-14.228 4.303-27.509 11.98-38.411 22.203a14.63 14.63 0 0 1-15.227 2.992l-17.397-6.65-15.14 26.22 14.434 11.727a14.63 14.63 0 0 1 5.025 14.658 98.434 98.434 0 0 0-.002 44.432 14.625 14.625 0 0 1-5.024 14.659l-14.434 11.727 15.14 26.219 17.397-6.65a14.625 14.625 0 0 1 15.229 2.995c10.897 10.225 24.179 17.903 38.408 22.206a14.626 14.626 0 0 1 10.209 11.69l2.939 18.361zm15.137-65.64c-31.862 0-57.782-25.921-57.782-57.782s25.921-57.782 57.782-57.782 57.784 25.921 57.784 57.782-25.922 57.782-57.784 57.782zm0-86.314c-15.733 0-28.531 12.799-28.531 28.531s12.799 28.531 28.531 28.531 28.533-12.799 28.533-28.531-12.8-28.531-28.533-28.531z"/>
  <g/>
</svg>
