<?xml version="1.0" encoding="utf-8"?>
<svg viewBox="42.735 -24.865 49.884 50" xmlns="http://www.w3.org/2000/svg">
  <path style="fill:#2C6474" d="M 70.296 -18.388 L 89.531 -18.388 L 89.531 -5.701 L 70.296 -5.701 L 70.296 -18.388 Z" transform="matrix(0.707094, -0.707119, 0.707119, 0.707094, 31.924025, 52.980476)"/>
  <path style="fill:#2C6474" d="M 45.17 4.513 L 68.856 4.513 L 68.856 17.199 L 45.17 17.199 L 45.17 4.513 Z" transform="matrix(-0.707094, 0.707119, -0.707119, -0.707094, 105.003052, -21.782782)"/>
  <path style="fill:#2C404B" d="M 47.185 -15.656 C 46.808 -15.656 46.447 -15.805 46.181 -16.072 C 45.627 -16.626 45.627 -17.525 46.181 -18.079 L 52.553 -24.45 C 53.107 -25.004 54.005 -25.004 54.559 -24.45 C 55.113 -23.896 55.113 -22.997 54.559 -22.443 L 48.188 -16.072 C 47.922 -15.805 47.561 -15.656 47.185 -15.656 L 47.185 -15.656 Z"/>
  <path style="fill:#2C6474" d="M 52.253 -19.654 L 60.626 -19.654 L 60.626 -8.729 L 52.253 -8.729 L 52.253 -19.654 Z" transform="matrix(-0.707094, -0.707119, 0.707119, -0.707094, 106.382629, 15.683233)"/>
  <path style="fill:#2C404B" d="M 85.958 -7.111 L 85.959 -7.112 L 92.203 -13.356 C 92.757 -13.91 92.757 -14.809 92.203 -15.363 L 83.232 -24.334 C 82.677 -24.888 81.779 -24.888 81.225 -24.334 L 68.627 -11.736 L 64.266 -16.097 L 58.345 -22.018 C 58.312 -22.051 58.277 -22.083 58.24 -22.113 C 58.215 -22.134 58.188 -22.152 58.162 -22.171 C 58.15 -22.179 58.14 -22.188 58.128 -22.196 C 58.095 -22.217 58.062 -22.237 58.028 -22.256 C 58.021 -22.259 58.015 -22.263 58.009 -22.267 C 57.975 -22.285 57.94 -22.301 57.904 -22.316 C 57.897 -22.319 57.89 -22.323 57.884 -22.326 C 57.85 -22.339 57.817 -22.351 57.783 -22.362 C 57.772 -22.365 57.763 -22.37 57.752 -22.373 C 57.722 -22.382 57.692 -22.389 57.661 -22.396 C 57.646 -22.399 57.632 -22.403 57.617 -22.406 C 57.591 -22.411 57.565 -22.414 57.539 -22.418 C 57.519 -22.421 57.499 -22.425 57.479 -22.427 C 57.458 -22.429 57.437 -22.429 57.416 -22.43 C 57.391 -22.431 57.367 -22.433 57.342 -22.433 C 57.315 -22.433 57.289 -22.431 57.262 -22.429 C 57.243 -22.428 57.224 -22.429 57.205 -22.427 C 57.182 -22.425 57.16 -22.42 57.138 -22.417 C 57.114 -22.414 57.091 -22.411 57.067 -22.406 C 57.049 -22.403 57.032 -22.398 57.014 -22.393 C 56.987 -22.387 56.959 -22.381 56.932 -22.373 C 56.919 -22.369 56.906 -22.363 56.892 -22.359 C 56.862 -22.349 56.831 -22.339 56.801 -22.326 C 56.791 -22.322 56.781 -22.317 56.77 -22.312 C 56.738 -22.298 56.706 -22.284 56.675 -22.267 C 56.665 -22.262 56.655 -22.255 56.644 -22.249 C 56.614 -22.232 56.585 -22.215 56.556 -22.196 C 56.539 -22.185 56.522 -22.171 56.505 -22.158 C 56.484 -22.144 56.464 -22.13 56.444 -22.114 C 56.407 -22.084 56.372 -22.052 56.338 -22.018 L 48.614 -14.293 C 48.348 -14.027 48.198 -13.666 48.198 -13.289 C 48.198 -12.913 48.348 -12.552 48.614 -12.286 L 54.535 -6.365 L 54.535 -6.365 L 58.895 -2.005 L 43.15 13.741 C 42.596 14.295 42.596 15.193 43.15 15.748 L 52.121 24.719 C 52.675 25.273 53.574 25.273 54.128 24.719 L 69.873 8.974 L 80.624 19.725 C 80.884 19.984 81.234 20.133 81.6 20.14 L 89.476 20.291 L 89.504 20.291 C 90.275 20.291 90.907 19.674 90.922 18.899 C 90.937 18.116 90.314 17.468 89.53 17.453 L 82.226 17.314 L 57.545 -7.368 L 63.263 -13.087 L 67.623 -8.727 L 67.624 -8.726 L 76.595 0.245 L 76.595 0.245 L 88.349 12 C 88.904 12.554 89.802 12.554 90.356 12 C 90.91 11.445 90.91 10.547 90.356 9.993 L 79.605 -0.758 L 85.957 -7.111 L 85.958 -7.111 L 85.958 -7.111 Z M 53.124 21.709 L 46.16 14.744 L 60.902 0.002 L 62.837 1.937 L 64.511 3.612 C 63.966 3.286 63.25 3.356 62.781 3.825 C 62.227 4.379 62.227 5.278 62.781 5.832 L 65.891 8.942 L 59.369 15.464 L 56.259 12.354 C 55.705 11.799 54.806 11.799 54.252 12.354 C 53.698 12.908 53.698 13.806 54.252 14.36 L 57.363 17.471 L 53.124 21.709 L 53.124 21.709 Z M 55.538 -9.375 L 51.624 -13.289 L 57.342 -19.008 L 61.256 -15.093 L 55.538 -9.375 L 55.538 -9.375 Z M 70.634 -9.73 L 82.228 -21.324 L 89.193 -14.359 L 84.955 -10.121 L 81.844 -13.232 C 81.29 -13.786 80.392 -13.786 79.837 -13.232 C 79.283 -12.678 79.283 -11.779 79.837 -11.225 L 82.948 -8.114 L 77.598 -2.765 L 70.634 -9.73 L 70.634 -9.73 Z"/>
</svg>