<svg version="1.1" xmlns="http://www.w3.org/2000/svg" xmlns:xlink="http://www.w3.org/1999/xlink" x="0" y="0" viewBox="0 0 508 508" style="enable-background:new 0 0 508 508" xml:space="preserve"><circle style="fill:#324A5E" cx="254" cy="254" r="254"/><path style="fill:#FFFFFF" d="M369.6 210.4c-1.6 0-2.8-1.2-2.8-2.8V192c0-2.8-1.6-5.2-4-6.8-4-2.8-6.4-7.2-6-12.4.8-6 5.6-10.8 11.2-11.2 3.6-.4 7.2.8 10 3.2s4.4 6 4.4 9.6c0 1.6-1.2 2.8-2.8 2.8-1.6 0-2.8-1.2-2.8-2.8 0-2-.8-4-2.4-5.2s-3.6-2-5.6-1.6c-3.2.4-5.6 2.8-6 6-.4 2.8.8 5.2 3.2 6.8 4 2.8 6.8 7.2 6.8 11.6v15.6c0 1.6-1.6 2.8-3.2 2.8z"/><path style="fill:#FFFFFF" d="M138.4 210.4c-1.6 0-2.8-1.2-2.8-2.8V192c0-4.8 2.4-9.2 6.8-11.6 2.4-1.6 3.6-4 3.2-6.8-.4-3.2-2.8-5.6-6-6-2-.4-4 .4-5.6 1.6-1.6 1.2-2.4 3.2-2.4 5.2 0 1.6-1.2 2.8-2.8 2.8s-2.8-1.2-2.8-2.8c0-3.6 1.6-7.2 4.4-9.6 2.8-2.4 6.4-3.6 10-3.2 6 .8 10.8 5.6 11.2 11.2.4 4.8-1.6 9.6-6 12.4-2.4 1.6-4 4-4 6.8v15.6c-.4 1.6-1.6 2.8-3.2 2.8z"/><path style="fill:#FFFFFF" d="M420.8 386.4H87.2c-1.6 0-3.2-1.6-3.2-3.2V188.8c0-1.6 1.6-3.2 3.2-3.2h334c1.6 0 3.2 1.6 3.2 3.2v194.4c0 1.6-1.6 3.2-3.6 3.2z"/><path style="fill:#CED5E0" d="M364.4 173.6c-.8 0-1.6-.4-2-.8L254 101.6l-108.4 71.2c-2 1.2-4.4.8-5.6-1.2-1.2-2-.8-4.4 1.2-5.6l110.4-72.8c1.2-.8 3.2-.8 4.4 0L366.4 166c2 1.2 2.4 3.6 1.2 5.6-.8 1.2-2 2-3.2 2z"/><circle style="fill:#FFFFFF" cx="254" cy="98" r="30"/><circle style="fill:#FF7058" cx="254" cy="98" r="16.4"/><path style="fill:#FF7058" d="M165.6 276c1.6 1.6 3.2 2.8 5.6 2.8 2.4 0 4.4-.8 5.6-2.8 1.6-1.6 2-4.4 2-7.2v-21.2h8.4v21.6c0 5.6-1.6 10-4.8 12.8s-7.2 4.4-12 4.4-8.8-1.6-12-4.4c-3.2-3.2-4.8-7.2-4.8-12.8v-21.6h8.4v21.2c1.2 2.8 2 5.2 3.6 7.2z"/><path style="fill:#FF7058" d="M223.6 247.2h8.4v38.4h-8.4l-18.4-24v24h-8.4v-38.4h8l18.8 24.8v-24.8z"/><path style="fill:#FF7058" d="M270.8 252.4c3.6 3.2 5.6 8 5.6 14s-1.6 10.8-5.2 14c-3.6 3.6-9.2 5.2-16.4 5.2h-13.2v-38.4h13.6c6.8 0 12 2 15.6 5.2zm-6.4 22.8c2-2 3.2-4.8 3.2-8.8 0-3.6-1.2-6.8-3.2-8.8s-5.2-3.2-9.6-3.2H250V278h5.6c3.6 0 6.8-.8 8.8-2.8z"/><path style="fill:#FF7058" d="M311.6 247.2v7.6h-19.2v8h17.2v7.2h-17.2v8H312v7.6h-28.4v-38.4h28z"/><path style="fill:#FF7058" d="M350.8 260c0 6-2.4 10-7.2 12l9.6 13.6h-10.4l-8.8-12h-6V286h-8.4v-38.4H334c6 0 10.4 1.2 12.8 3.2 2.8 1.6 4 4.8 4 9.2zm-10.4 4.8c1.2-.8 1.6-2.4 1.6-4.4s-.4-3.6-1.6-4.4-3.2-1.2-5.6-1.2h-6.4V266h6.4c2.8 0 4.8-.4 5.6-1.2z"/><path style="fill:#FF7058" d="M128.4 319.6c2.4 0 4.8-1.2 6.4-3.2l3.2 3.6c-2.8 2.8-5.6 4.4-9.2 4.4-3.6 0-6.4-1.2-8.8-3.2-2.4-2.4-3.6-5.2-3.6-8.4 0-3.6 1.2-6.4 3.6-8.8s5.2-3.6 8.8-3.6c4 0 7.2 1.6 9.6 4.4l-3.2 3.6c-1.6-2-3.6-3.2-6-3.2-2 0-3.6.8-5.2 2-1.2 1.2-2 2.8-2 5.2s.8 4 2 5.2c1.2 1.2 2.8 2 4.4 2z"/><path style="fill:#FF7058" d="M161.2 321.2c-2.4 2.4-5.2 3.6-8.8 3.6s-6.4-1.2-8.8-3.6c-2.4-2.4-3.6-5.2-3.6-8.4 0-3.6 1.2-6.4 3.6-8.4 2.4-2.4 5.2-3.6 8.8-3.6s6.4 1.2 8.8 3.6c2.4 2.4 3.6 5.2 3.6 8.4s-1.2 6-3.6 8.4zm-1.6-8.8c0-2-.8-4-2-5.2-1.2-1.6-2.8-2-4.8-2s-3.6.8-4.8 2c-1.2 1.6-2 3.2-2 5.2s.8 4 2 5.2c1.2 1.6 2.8 2 4.8 2s3.6-.8 4.8-2 2-3.2 2-5.2z"/><path style="fill:#FF7058" d="M185.6 300.8h5.2V324h-5.2l-11.2-14.4V324h-5.2v-23.2h4.8l11.6 14.8v-14.8z"/><path style="fill:#FF7058" d="M202 305.6c-.4.4-.8.8-.8 1.6s.4 1.2.8 1.6c.8.4 2 .8 4.4 1.6 2.4.4 4 1.2 5.2 2.4 1.2 1.2 2 2.8 2 4.8s-.8 3.6-2.4 5.2c-1.6 1.2-3.6 2-6 2-3.6 0-7.2-1.2-10-4l3.2-3.6c2.4 2 4.8 3.2 6.8 3.2.8 0 1.6-.4 2.4-.8.4-.4.8-.8.8-1.6s-.4-1.2-.8-1.6c-.4-.4-1.6-.8-3.6-1.2-2.8-.8-4.8-1.6-6-2.4-1.2-1.2-2-2.8-2-4.8 0-2.4.8-4 2.4-5.2 1.6-1.2 3.6-1.6 6-1.6 1.6 0 3.2.4 4.8.8s2.8 1.2 4 2.4l-2.8 3.6c-2-1.6-4-2.4-6.4-2.4-.8-.8-1.6-.4-2 0z"/><path style="fill:#FF7058" d="M227.2 305.6v18.8H222v-18.8h-6.4v-4.4H234v4.4h-6.8z"/><path style="fill:#FF7058" d="M256.8 308.8c0 3.6-1.6 6-4.4 7.2l6 8.4H252l-5.2-7.6h-3.6v7.6H238v-23.2h8.8c3.6 0 6 .8 7.6 2 1.6.8 2.4 2.8 2.4 5.6zm-6.4 2.8c.8-.4.8-1.6.8-2.8 0-1.2-.4-2-.8-2.4-.8-.4-2-.8-3.6-.8h-4v6.8h3.6c2 0 3.2-.4 4-.8z"/><path style="fill:#FF7058" d="M268 318.4c.8 1.2 2 1.6 3.6 1.6s2.8-.4 3.6-1.6c.8-1.2 1.2-2.4 1.2-4.4v-12.8h5.2V314c0 3.2-.8 6-2.8 7.6-2 2-4.4 2.8-7.2 2.8s-5.2-.8-7.2-2.8-2.8-4.4-2.8-7.6v-13.2h5.2V314c0 1.6.4 3.2 1.2 4.4z"/><path style="fill:#FF7058" d="M297.6 319.6c2.4 0 4.8-1.2 6.4-3.2l3.2 3.6c-2.8 2.8-5.6 4.4-9.2 4.4s-6.4-1.2-8.8-3.2c-2.4-2.4-3.6-5.2-3.6-8.4 0-3.6 1.2-6.4 3.6-8.8s5.2-3.6 8.8-3.6c4 0 7.2 1.6 9.6 4.4l-3.2 3.6c-1.6-2-3.6-3.2-6-3.2-2 0-3.6.8-5.2 2-1.2 1.2-2 2.8-2 5.2s.8 4 2 5.2c1.2 1.2 2.4 2 4.4 2z"/><path style="fill:#FF7058" d="M321.2 305.6v18.8H316v-18.8h-6.4v-4.4H328v4.4h-6.8z"/><path style="fill:#FF7058" d="M331.6 300.8h5.2V324h-5.2v-23.2z"/><path style="fill:#FF7058" d="M362 321.2c-2.4 2.4-5.2 3.6-8.8 3.6-3.6 0-6.4-1.2-8.8-3.6s-3.6-5.2-3.6-8.4c0-3.6 1.2-6.4 3.6-8.4 2.4-2.4 5.2-3.6 8.8-3.6 3.6 0 6.4 1.2 8.8 3.6s3.6 5.2 3.6 8.4-1.2 6-3.6 8.4zm-1.6-8.8c0-2-.8-4-2-5.2-1.2-1.6-2.8-2-4.8-2s-3.6.8-4.8 2c-1.2 1.6-2 3.2-2 5.2s.8 4 2 5.2c1.2 1.6 2.8 2 4.8 2s3.6-.8 4.8-2c1.2-1.2 2-3.2 2-5.2z"/><path style="fill:#FF7058" d="M386.4 300.8h5.2V324h-5.2l-11.2-14.4V324H370v-23.2h4.8l11.6 14.8v-14.8z"/><g/><g/><g/><g/><g/><g/><g/><g/><g/><g/><g/><g/><g/><g/><g/></svg>