<svg version="1.1" xmlns="http://www.w3.org/2000/svg" xmlns:xlink="http://www.w3.org/1999/xlink" x="0" y="0" viewBox="0 0 512 512" style="enable-background:new 0 0 512 512" xml:space="preserve"><path style="fill:#464655" d="M509.435 448.962 271.75 44.367c-7.076-12.045-24.424-12.045-31.5 0L2.565 448.962c-7.194 12.245 1.595 27.705 15.75 27.705h475.368c14.156-.001 22.946-15.46 15.752-27.705z"/><path style="fill:#5B5D6E" d="M310.09 109.633c-75.525 54.5-124.731 143.208-124.731 243.46 0 44.069 9.578 85.877 26.64 123.573h281.685c14.155 0 22.944-15.459 15.75-27.705L310.09 109.633z"/><path style="fill:#FFDC64" d="M252.195 93.738 53.788 431.474c-2.57 4.374.585 9.885 5.658 9.885h393.11c5.073 0 8.228-5.511 5.658-9.885L259.805 93.738c-1.706-2.904-5.904-2.904-7.61 0z"/><path style="fill:#FFF082" d="M185.36 353.093c0 30.722 4.638 60.357 13.216 88.267h253.98c5.073 0 8.228-5.511 5.658-9.885L282.389 132.181c-59.634 54.848-97.029 133.502-97.029 220.912z"/><circle style="fill:#464655" cx="256.028" cy="379.568" r="17.653"/><path style="fill:#464655" d="m239.049 213.171 7.566 113.485c.33 4.948 4.174 8.784 8.805 8.784h1.216c4.631 0 8.475-3.834 8.805-8.784l7.566-113.485c.365-5.475-3.682-10.131-8.805-10.131h-16.347c-5.124 0-9.171 4.657-8.806 10.131z"/><path style="fill:#FFC850" d="M452.556 450.186H59.442a15.425 15.425 0 0 1-13.353-7.741 15.442 15.442 0 0 1 .086-15.442L244.587 89.258c2.405-4.086 6.672-6.525 11.422-6.525 4.741 0 9.008 2.439 11.413 6.525l198.401 337.744a15.442 15.442 0 0 1 .086 15.442 15.424 15.424 0 0 1-13.353 7.742zM63.399 432.533H448.6L255.998 104.684 63.399 432.533z"/><path style="fill:#FFDC64" d="M448.599 432.533h-252.53a297.058 297.058 0 0 0 5.441 17.653h251.048c5.499 0 10.62-2.966 13.353-7.741a15.442 15.442 0 0 0-.086-15.442l-176.69-300.779c-4.553 3.944-9 8.005-13.307 12.212l172.771 294.097z"/><g/><g/><g/><g/><g/><g/><g/><g/><g/><g/><g/><g/><g/><g/><g/></svg>