<?xml version="1.0" encoding="utf-8"?>
<!-- Generator: Adobe Illustrator 26.0.3, SVG Export Plug-In . SVG Version: 6.00 Build 0)  -->
<svg version="1.1" id="Calque_1" xmlns="http://www.w3.org/2000/svg" xmlns:xlink="http://www.w3.org/1999/xlink" x="0px" y="0px"
	 viewBox="0 0 60.63 60.63" style="enable-background:new 0 0 60.63 60.63;" xml:space="preserve">
<style type="text/css">
	.st0{fill:#2E6575;}
	.st1{fill:#00AFA5;}
</style>
<g>
	<path class="st0" d="M35.8,44.46c-7.8,0-14.15-6.35-14.15-14.15c0-1.76,1.43-3.18,3.18-3.18s3.18,1.43,3.18,3.18
		c0,4.29,3.49,7.78,7.78,7.78s7.78-3.49,7.78-7.78c0-1.76,1.43-3.18,3.18-3.18s3.18,1.43,3.18,3.18
		C49.94,38.12,43.6,44.46,35.8,44.46z"/>
	<path class="st1" d="M35.8,33.5c-1.76,0-3.18-1.43-3.18-3.18c0-4.29-3.49-7.78-7.78-7.78c-4.29,0-7.78,3.49-7.78,7.78
		c0,1.76-1.43,3.18-3.18,3.18s-3.18-1.43-3.18-3.18c0-7.8,6.35-14.15,14.15-14.15c7.8,0,14.15,6.35,14.15,14.15
		C38.98,32.08,37.56,33.5,35.8,33.5z"/>
</g>
</svg>
