<?xml version="1.0" encoding="utf-8"?>
<!-- Generator: Adobe Illustrator 26.0.3, SVG Export Plug-In . SVG Version: 6.00 Build 0)  -->
<svg version="1.1" id="Calque_1" xmlns="http://www.w3.org/2000/svg" xmlns:xlink="http://www.w3.org/1999/xlink" x="0px" y="0px"
	 viewBox="0 0 60.63 60.63" style="enable-background:new 0 0 60.63 60.63;" xml:space="preserve">
<style type="text/css">
	.st0{fill:#2E6575;}
	.st1{fill:#00AFA5;}
</style>
<g>
	<path class="st0" d="M25.17,28.07h-6.61c-1.18,0-2.14-0.96-2.14-2.14v-6.61c0-1.18,0.96-2.14,2.14-2.14h6.61
		c1.18,0,2.14,0.96,2.14,2.14v6.61C27.32,27.11,26.36,28.07,25.17,28.07z"/>
	<path class="st1" d="M35.88,28.81l-4.68-4.68c-0.84-0.84-0.84-2.19,0-3.03l4.68-4.68c0.84-0.84,2.19-0.84,3.03,0l4.68,4.68
		c0.84,0.84,0.84,2.19,0,3.03l-4.68,4.68C38.07,29.65,36.72,29.65,35.88,28.81z"/>
	<path class="st0" d="M25.17,44.71h-6.61c-1.18,0-2.14-0.96-2.14-2.14v-6.61c0-1.18,0.96-2.14,2.14-2.14h6.61
		c1.18,0,2.14,0.96,2.14,2.14v6.61C27.32,43.76,26.36,44.71,25.17,44.71z"/>
	<path class="st0" d="M40.7,44.71h-6.61c-1.18,0-2.14-0.96-2.14-2.14v-6.61c0-1.18,0.96-2.14,2.14-2.14h6.61
		c1.18,0,2.14,0.96,2.14,2.14v6.61C42.84,43.76,41.89,44.71,40.7,44.71z"/>
</g>
</svg>
