<?xml version="1.0" encoding="utf-8"?>
<!-- Generator: Adobe Illustrator 26.0.3, SVG Export Plug-In . SVG Version: 6.00 Build 0)  -->
<svg version="1.1" id="Calque_1" xmlns="http://www.w3.org/2000/svg" xmlns:xlink="http://www.w3.org/1999/xlink" x="0px" y="0px"
	 viewBox="0 0 60.63 60.63" style="enable-background:new 0 0 60.63 60.63;" xml:space="preserve">
<style type="text/css">
	.st0{fill:#2E6575;}
	.st1{fill:#00AFA5;}
</style>
<g>
	<g>
		<path class="st0" d="M43.47,11.69c-1.91-0.67-4,0.32-4.68,2.23l-5.75,16.24l4.32,9.74l8.33-23.53
			C46.37,14.46,45.37,12.36,43.47,11.69z"/>
	</g>
	<g>
		<path class="st1" d="M18.39,38.1c-0.42,0-0.85-0.07-1.26-0.23c-1.9-0.7-2.87-2.8-2.17-4.7l4.49-12.2c0.7-1.9,2.81-2.87,4.7-2.17
			c1.9,0.7,2.87,2.8,2.17,4.7l-4.49,12.2C21.28,37.18,19.88,38.1,18.39,38.1z"/>
		<g>
			<path class="st0" d="M35.6,41.87l-7.37-16.6l-3.63,9.88l4.3,9.69c0.61,1.37,1.95,2.18,3.35,2.18c0.5,0,1-0.1,1.48-0.32
				C35.59,45.89,36.42,43.72,35.6,41.87z"/>
		</g>
	</g>
</g>
</svg>
